NotoSerifArmenian-Condensed.ufo
<glyph name="dieresiscomb" format="2">
  <unicode hex="0308"/>
  <anchor x="1" y="536" name="_top"/>
  <outline>
    <contour>
      <point x="72" y="640" type="curve" smooth="yes"/>
      <point x="94" y="640"/>
      <point x="114" y="653"/>
      <point x="114" y="692" type="curve" smooth="yes"/>
      <point x="114" y="732"/>
      <point x="94" y="745"/>
      <point x="72" y="745" type="curve" smooth="yes"/>
      <point x="48" y="745"/>
      <point x="29" y="732"/>
      <point x="29" y="692" type="curve" smooth="yes"/>
      <point x="29" y="653"/>
      <point x="48" y="640"/>
    </contour>
    <contour>
      <point x="-72" y="640" type="curve" smooth="yes"/>
      <point x="-50" y="640"/>
      <point x="-29" y="653"/>
      <point x="-29" y="692" type="curve" smooth="yes"/>
      <point x="-29" y="732"/>
      <point x="-50" y="745"/>
      <point x="-72" y="745" type="curve" smooth="yes"/>
      <point x="-95" y="745"/>
      <point x="-113" y="732"/>
      <point x="-113" y="692" type="curve" smooth="yes"/>
      <point x="-113" y="653"/>
      <point x="-95" y="640"/>
    </contour>
  </outline>
</glyph>
<glyph name="uni0531" format="2">
  <advance width="643"/>
  <unicode hex="0531"/>
  <note>
uni0531
</note>
  <anchor x="281" y="714" name="top"/>
  <outline>
    <contour>
      <point x="358" y="714" type="line"/>
      <point x="358" y="679" type="line"/>
      <point x="403" y="679"/>
      <point x="413" y="669"/>
      <point x="413" y="599" type="curve" smooth="yes"/>
      <point x="413" y="206" type="line" smooth="yes"/>
      <point x="413" y="113"/>
      <point x="376" y="37"/>
      <point x="280" y="37" type="curve" smooth="yes"/>
      <point x="198" y="37"/>
      <point x="148" y="80"/>
      <point x="148" y="210" type="curve" smooth="yes"/>
      <point x="148" y="714" type="line"/>
      <point x="33" y="714" type="line"/>
      <point x="33" y="679" type="line"/>
      <point x="77" y="679"/>
      <point x="84" y="669"/>
      <point x="84" y="600" type="curve" smooth="yes"/>
      <point x="84" y="215" type="line" smooth="yes"/>
      <point x="84" y="55"/>
      <point x="161" y="-10"/>
      <point x="279" y="-10" type="curve" smooth="yes"/>
      <point x="417" y="-10"/>
      <point x="477" y="87"/>
      <point x="477" y="204" type="curve" smooth="yes"/>
      <point x="477" y="714" type="line"/>
    </contour>
    <contour>
      <point x="471" y="227" type="curve"/>
      <point x="470" y="183" type="line"/>
      <point x="480" y="189"/>
      <point x="495" y="192"/>
      <point x="510" y="192" type="curve" smooth="yes"/>
      <point x="545" y="192"/>
      <point x="562" y="170"/>
      <point x="562" y="108" type="curve" smooth="yes"/>
      <point x="562" y="0" type="line"/>
      <point x="625" y="0" type="line"/>
      <point x="625" y="107" type="line" smooth="yes"/>
      <point x="625" y="205"/>
      <point x="591" y="235"/>
      <point x="525" y="235" type="curve" smooth="yes"/>
      <point x="502" y="235"/>
      <point x="487" y="232"/>
    </contour>
  </outline>
</glyph>
<glyph name="uni0532" format="2">
  <advance width="535"/>
  <unicode hex="0532"/>
  <note>
uni0532
</note>
  <outline>
    <contour>
      <point x="201" y="0" type="line"/>
      <point x="201" y="35" type="line"/>
      <point x="157" y="35"/>
      <point x="146" y="45"/>
      <point x="146" y="115" type="curve" smooth="yes"/>
      <point x="146" y="508" type="line" smooth="yes"/>
      <point x="146" y="601"/>
      <point x="183" y="677"/>
      <point x="280" y="677" type="curve" smooth="yes"/>
      <point x="361" y="677"/>
      <point x="411" y="634"/>
      <point x="411" y="504" type="curve" smooth="yes"/>
      <point x="411" y="413" type="line"/>
      <point x="475" y="413" type="line"/>
      <point x="475" y="499" type="line" smooth="yes"/>
      <point x="475" y="659"/>
      <point x="399" y="724"/>
      <point x="281" y="724" type="curve" smooth="yes"/>
      <point x="142" y="724"/>
      <point x="82" y="627"/>
      <point x="82" y="510" type="curve" smooth="yes"/>
      <point x="82" y="0" type="line"/>
    </contour>
    <contour>
      <point x="132" y="300" type="line"/>
      <point x="467" y="300" type="line"/>
      <point x="467" y="343" type="line"/>
      <point x="132" y="343" type="line"/>
    </contour>
  </outline>
</glyph>
<glyph name="uni0533" format="2">
  <advance width="569"/>
  <unicode hex="0533"/>
  <note>
uni0533
</note>
  <outline>
    <contour>
      <point x="375" y="0" type="line"/>
      <point x="490" y="0" type="line"/>
      <point x="490" y="35" type="line"/>
      <point x="446" y="35"/>
      <point x="439" y="45"/>
      <point x="439" y="114" type="curve" smooth="yes"/>
      <point x="439" y="499" type="line" smooth="yes"/>
      <point x="439" y="659"/>
      <point x="362" y="724"/>
      <point x="244" y="724" type="curve" smooth="yes"/>
      <point x="107" y="724"/>
      <point x="46" y="631"/>
      <point x="46" y="514" type="curve" smooth="yes"/>
      <point x="46" y="393"/>
      <point x="108" y="309"/>
      <point x="244" y="309" type="curve" smooth="yes"/>
      <point x="375" y="309" type="line"/>
    </contour>
    <contour>
      <point x="244" y="351" type="line" smooth="yes"/>
      <point x="146" y="351"/>
      <point x="110" y="425"/>
      <point x="110" y="514" type="curve" smooth="yes"/>
      <point x="110" y="604"/>
      <point x="147" y="677"/>
      <point x="244" y="677" type="curve" smooth="yes"/>
      <point x="325" y="677"/>
      <point x="375" y="634"/>
      <point x="375" y="504" type="curve" smooth="yes"/>
      <point x="375" y="351" type="line"/>
    </contour>
    <contour>
      <point x="426" y="309" type="line"/>
      <point x="564" y="309" type="line"/>
      <point x="564" y="351" type="line"/>
      <point x="426" y="351" type="line"/>
    </contour>
  </outline>
</glyph>
<glyph name="uni0534" format="2">
  <advance width="583"/>
  <unicode hex="0534"/>
  <note>
uni0534
</note>
  <outline>
    <contour>
      <point x="60" y="362" type="line"/>
      <point x="124" y="362" type="line"/>
      <point x="124" y="508" type="line" smooth="yes"/>
      <point x="124" y="601"/>
      <point x="161" y="677"/>
      <point x="258" y="677" type="curve" smooth="yes"/>
      <point x="339" y="677"/>
      <point x="389" y="634"/>
      <point x="389" y="504" type="curve" smooth="yes"/>
      <point x="389" y="0" type="line"/>
      <point x="504" y="0" type="line"/>
      <point x="504" y="35" type="line"/>
      <point x="460" y="35"/>
      <point x="453" y="45"/>
      <point x="453" y="114" type="curve" smooth="yes"/>
      <point x="453" y="499" type="line" smooth="yes"/>
      <point x="453" y="659"/>
      <point x="376" y="724"/>
      <point x="258" y="724" type="curve" smooth="yes"/>
      <point x="119" y="724"/>
      <point x="60" y="627"/>
      <point x="60" y="510" type="curve" smooth="yes"/>
    </contour>
    <contour>
      <point x="438" y="301" type="line"/>
      <point x="578" y="301" type="line"/>
      <point x="578" y="344" type="line"/>
      <point x="438" y="344" type="line"/>
    </contour>
  </outline>
</glyph>
<glyph name="uni0535" format="2">
  <advance width="529"/>
  <unicode hex="0535"/>
  <note>
uni0535
</note>
  <outline>
    <contour>
      <point x="279" y="-10" type="curve" smooth="yes"/>
      <point x="418" y="-10"/>
      <point x="477" y="87"/>
      <point x="477" y="204" type="curve" smooth="yes"/>
      <point x="477" y="302" type="line"/>
      <point x="413" y="302" type="line"/>
      <point x="413" y="216" type="line" smooth="yes"/>
      <point x="413" y="123"/>
      <point x="376" y="37"/>
      <point x="280" y="37" type="curve" smooth="yes"/>
      <point x="198" y="37"/>
      <point x="148" y="90"/>
      <point x="148" y="220" type="curve" smooth="yes"/>
      <point x="148" y="714" type="line"/>
      <point x="33" y="714" type="line"/>
      <point x="33" y="679" type="line"/>
      <point x="77" y="679"/>
      <point x="84" y="669"/>
      <point x="84" y="600" type="curve" smooth="yes"/>
      <point x="84" y="215" type="line" smooth="yes"/>
      <point x="84" y="55"/>
      <point x="161" y="-10"/>
    </contour>
    <contour>
      <point x="132" y="441" type="line"/>
      <point x="467" y="441" type="line"/>
      <point x="467" y="484" type="line"/>
      <point x="132" y="484" type="line"/>
    </contour>
  </outline>
</glyph>
<glyph name="uni0536" format="2">
  <advance width="473"/>
  <unicode hex="0536"/>
  <note>
uni0536
</note>
  <outline>
    <contour>
      <point x="226" y="283" type="curve"/>
      <point x="353" y="283"/>
      <point x="427" y="372"/>
      <point x="427" y="501" type="curve" smooth="yes"/>
      <point x="427" y="634"/>
      <point x="359" y="727"/>
      <point x="233" y="727" type="curve" smooth="yes"/>
      <point x="112" y="727"/>
      <point x="35" y="640"/>
      <point x="35" y="504" type="curve" smooth="yes"/>
      <point x="35" y="374"/>
      <point x="107" y="283"/>
    </contour>
    <contour>
      <point x="45" y="0" type="line"/>
      <point x="107" y="0" type="line"/>
      <point x="107" y="185" type="line"/>
      <point x="45" y="185" type="line"/>
    </contour>
    <contour>
      <point x="382" y="0" type="line"/>
      <point x="446" y="0" type="line"/>
      <point x="446" y="13" type="line" smooth="yes"/>
      <point x="446" y="102"/>
      <point x="407" y="131"/>
      <point x="337" y="131" type="curve" smooth="yes"/>
      <point x="76" y="131" type="line"/>
      <point x="76" y="88" type="line"/>
      <point x="315" y="88" type="line" smooth="yes"/>
      <point x="365" y="88"/>
      <point x="382" y="66"/>
      <point x="382" y="15" type="curve" smooth="yes"/>
    </contour>
    <contour>
      <point x="104" y="91" type="line"/>
      <point x="267" y="95"/>
      <point x="427" y="228"/>
      <point x="427" y="501" type="curve"/>
      <point x="365" y="501" type="line"/>
      <point x="365" y="245"/>
      <point x="239" y="131"/>
      <point x="104" y="131" type="curve"/>
    </contour>
    <contour>
      <point x="231" y="326" type="curve"/>
      <point x="146" y="326"/>
      <point x="102" y="394"/>
      <point x="102" y="504" type="curve" smooth="yes"/>
      <point x="102" y="621"/>
      <point x="151" y="684"/>
      <point x="234" y="684" type="curve" smooth="yes"/>
      <point x="321" y="684"/>
      <point x="360" y="611"/>
      <point x="360" y="507" type="curve" smooth="yes"/>
      <point x="360" y="395"/>
      <point x="317" y="326"/>
    </contour>
  </outline>
</glyph>
<glyph name="uni0537" format="2">
  <advance width="434"/>
  <unicode hex="0537"/>
  <note>
uni0537
</note>
  <outline>
    <contour>
      <point x="148" y="40" type="line"/>
      <point x="148" y="714" type="line"/>
      <point x="33" y="714" type="line"/>
      <point x="33" y="679" type="line"/>
      <point x="77" y="679"/>
      <point x="84" y="669"/>
      <point x="84" y="600" type="curve" smooth="yes"/>
      <point x="84" y="0" type="line"/>
    </contour>
    <contour>
      <point x="132" y="441" type="line"/>
      <point x="383" y="441" type="line"/>
      <point x="383" y="484" type="line"/>
      <point x="132" y="484" type="line"/>
    </contour>
    <contour>
      <point x="273" y="106" type="curve" smooth="yes"/>
      <point x="221" y="106"/>
      <point x="156" y="85"/>
      <point x="84" y="42" type="curve"/>
      <point x="84" y="0" type="line"/>
      <point x="140" y="36"/>
      <point x="207" y="59"/>
      <point x="253" y="59" type="curve" smooth="yes"/>
      <point x="303" y="59"/>
      <point x="324" y="38"/>
      <point x="324" y="-35" type="curve" smooth="yes"/>
      <point x="324" y="-62" type="line"/>
      <point x="388" y="-62" type="line"/>
      <point x="388" y="-36" type="line" smooth="yes"/>
      <point x="388" y="74"/>
      <point x="348" y="106"/>
    </contour>
  </outline>
</glyph>
<glyph name="uni0538" format="2">
  <advance width="535"/>
  <unicode hex="0538"/>
  <note>
uni0538
</note>
  <outline>
    <contour>
      <point x="281" y="724" type="curve" smooth="yes"/>
      <point x="142" y="724"/>
      <point x="82" y="627"/>
      <point x="82" y="510" type="curve" smooth="yes"/>
      <point x="82" y="0" type="line"/>
      <point x="146" y="0" type="line"/>
      <point x="146" y="508" type="line" smooth="yes"/>
      <point x="146" y="601"/>
      <point x="183" y="677"/>
      <point x="280" y="677" type="curve" smooth="yes"/>
      <point x="361" y="677"/>
      <point x="411" y="634"/>
      <point x="411" y="504" type="curve" smooth="yes"/>
      <point x="411" y="413" type="line"/>
      <point x="475" y="413" type="line"/>
      <point x="475" y="499" type="line" smooth="yes"/>
      <point x="475" y="659"/>
      <point x="399" y="724"/>
    </contour>
    <contour>
      <point x="132" y="0" type="line"/>
      <point x="467" y="0" type="line"/>
      <point x="467" y="43" type="line"/>
      <point x="132" y="43" type="line"/>
    </contour>
  </outline>
</glyph>
<glyph name="uni0539" format="2">
  <advance width="595"/>
  <unicode hex="0539"/>
  <note>
uni0539
</note>
  <outline>
    <contour>
      <point x="201" y="0" type="line"/>
      <point x="201" y="35" type="line"/>
      <point x="157" y="35"/>
      <point x="146" y="45"/>
      <point x="146" y="115" type="curve" smooth="yes"/>
      <point x="146" y="508" type="line" smooth="yes"/>
      <point x="146" y="621"/>
      <point x="192" y="677"/>
      <point x="302" y="677" type="curve" smooth="yes"/>
      <point x="400" y="677"/>
      <point x="458" y="630"/>
      <point x="458" y="456" type="curve"/>
      <point x="522" y="454" type="line"/>
      <point x="522" y="655"/>
      <point x="436" y="724"/>
      <point x="304" y="724" type="curve" smooth="yes"/>
      <point x="150" y="724"/>
      <point x="82" y="637"/>
      <point x="82" y="510" type="curve" smooth="yes"/>
      <point x="82" y="0" type="line"/>
    </contour>
    <contour>
      <point x="424" y="419" type="curve" smooth="yes"/>
      <point x="458" y="419" type="line"/>
      <point x="458" y="218"/>
      <point x="430" y="180"/>
      <point x="368" y="180" type="curve" smooth="yes"/>
      <point x="314" y="180"/>
      <point x="290" y="217"/>
      <point x="290" y="298" type="curve" smooth="yes"/>
      <point x="290" y="394"/>
      <point x="338" y="419"/>
    </contour>
    <contour>
      <point x="589" y="462" type="line"/>
      <point x="416" y="462" type="line" smooth="yes"/>
      <point x="292" y="462"/>
      <point x="230" y="414"/>
      <point x="230" y="301" type="curve" smooth="yes"/>
      <point x="230" y="195"/>
      <point x="277" y="135"/>
      <point x="368" y="135" type="curve" smooth="yes"/>
      <point x="468" y="135"/>
      <point x="522" y="199"/>
      <point x="522" y="419" type="curve"/>
      <point x="589" y="419" type="line"/>
    </contour>
  </outline>
</glyph>
<glyph name="uni053A" format="2">
  <advance width="561"/>
  <unicode hex="053A"/>
  <note>
uni053A
</note>
  <outline>
    <contour>
      <point x="244" y="-10" type="curve" smooth="yes"/>
      <point x="362" y="-10"/>
      <point x="439" y="55"/>
      <point x="439" y="215" type="curve" smooth="yes"/>
      <point x="439" y="714" type="line"/>
      <point x="324" y="714" type="line"/>
      <point x="324" y="679" type="line"/>
      <point x="369" y="679"/>
      <point x="375" y="669"/>
      <point x="375" y="600" type="curve" smooth="yes"/>
      <point x="375" y="459" type="line"/>
      <point x="244" y="459" type="line" smooth="yes"/>
      <point x="108" y="459"/>
      <point x="46" y="373"/>
      <point x="46" y="227" type="curve" smooth="yes"/>
      <point x="46" y="95"/>
      <point x="107" y="-10"/>
    </contour>
    <contour>
      <point x="244" y="37" type="curve" smooth="yes"/>
      <point x="147" y="37"/>
      <point x="110" y="123"/>
      <point x="110" y="227" type="curve" smooth="yes"/>
      <point x="110" y="340"/>
      <point x="146" y="416"/>
      <point x="244" y="416" type="curve" smooth="yes"/>
      <point x="375" y="416" type="line"/>
      <point x="375" y="224" type="line" smooth="yes"/>
      <point x="375" y="81"/>
      <point x="325" y="37"/>
    </contour>
    <contour>
      <point x="426" y="459" type="line"/>
      <point x="426" y="416" type="line"/>
      <point x="556" y="416" type="line"/>
      <point x="556" y="459" type="line"/>
    </contour>
  </outline>
</glyph>
<glyph name="uni053B" format="2">
  <advance width="497"/>
  <unicode hex="053B"/>
  <note>
uni053B
</note>
  <outline>
    <contour>
      <point x="148" y="373" type="line" smooth="yes"/>
      <point x="148" y="445"/>
      <point x="202" y="504"/>
      <point x="279" y="504" type="curve" smooth="yes"/>
      <point x="349" y="504"/>
      <point x="383" y="468"/>
      <point x="383" y="375" type="curve" smooth="yes"/>
      <point x="383" y="266" type="line"/>
      <point x="446" y="266" type="line"/>
      <point x="446" y="384" type="line" smooth="yes"/>
      <point x="446" y="497"/>
      <point x="393" y="554"/>
      <point x="297" y="554" type="curve" smooth="yes"/>
      <point x="240" y="554"/>
      <point x="183" y="529"/>
      <point x="150" y="467" type="curve"/>
      <point x="146" y="467" type="line"/>
      <point x="147" y="488"/>
      <point x="148" y="510"/>
      <point x="148" y="532" type="curve" smooth="yes"/>
      <point x="148" y="714" type="line"/>
      <point x="33" y="714" type="line"/>
      <point x="33" y="679" type="line"/>
      <point x="77" y="679"/>
      <point x="84" y="669"/>
      <point x="84" y="600" type="curve" smooth="yes"/>
      <point x="84" y="0" type="line"/>
      <point x="199" y="0" type="line"/>
      <point x="199" y="35" type="line"/>
      <point x="157" y="35"/>
      <point x="148" y="45"/>
      <point x="148" y="114" type="curve" smooth="yes"/>
    </contour>
  </outline>
</glyph>
<glyph name="uni053C" format="2">
  <advance width="396"/>
  <unicode hex="053C"/>
  <note>
uni053C
</note>
  <outline>
    <contour>
      <point x="386" y="101" type="line"/>
      <point x="351" y="101" type="line"/>
      <point x="351" y="51"/>
      <point x="346" y="43"/>
      <point x="309" y="43" type="curve" smooth="yes"/>
      <point x="148" y="43" type="line"/>
      <point x="148" y="714" type="line"/>
      <point x="33" y="714" type="line"/>
      <point x="33" y="679" type="line"/>
      <point x="76" y="679"/>
      <point x="84" y="672"/>
      <point x="84" y="602" type="curve" smooth="yes"/>
      <point x="84" y="0" type="line"/>
      <point x="386" y="0" type="line"/>
    </contour>
  </outline>
</glyph>
<glyph name="uni053D" format="2">
  <advance width="604"/>
  <unicode hex="053D"/>
  <note>
uni053D
</note>
  <outline>
    <contour>
      <point x="148" y="114" type="curve" smooth="yes"/>
      <point x="148" y="714" type="line"/>
      <point x="33" y="714" type="line"/>
      <point x="33" y="679" type="line"/>
      <point x="77" y="679"/>
      <point x="84" y="669"/>
      <point x="84" y="600" type="curve" smooth="yes"/>
      <point x="84" y="0" type="line"/>
      <point x="199" y="0" type="line"/>
      <point x="199" y="35" type="line"/>
      <point x="157" y="35"/>
      <point x="148" y="45"/>
    </contour>
    <contour>
      <point x="445" y="525" type="line"/>
      <point x="481" y="525"/>
      <point x="489" y="517"/>
      <point x="489" y="464" type="curve" smooth="yes"/>
      <point x="489" y="333" type="line" smooth="yes"/>
      <point x="489" y="236"/>
      <point x="468" y="207"/>
      <point x="409" y="207" type="curve" smooth="yes"/>
      <point x="359" y="207"/>
      <point x="333" y="231"/>
      <point x="333" y="333" type="curve" smooth="yes"/>
      <point x="333" y="560" type="line"/>
      <point x="133" y="560" type="line"/>
      <point x="133" y="517" type="line"/>
      <point x="269" y="517" type="line"/>
      <point x="269" y="333" type="line" smooth="yes"/>
      <point x="269" y="209"/>
      <point x="324" y="162"/>
      <point x="409" y="162" type="curve" smooth="yes"/>
      <point x="500" y="162"/>
      <point x="553" y="214"/>
      <point x="553" y="335" type="curve" smooth="yes"/>
      <point x="553" y="560" type="line"/>
      <point x="445" y="560" type="line"/>
    </contour>
  </outline>
</glyph>
<glyph name="uni053E" format="2">
  <advance width="513"/>
  <unicode hex="053E"/>
  <note>
uni053E
</note>
  <outline>
    <contour>
      <point x="187" y="582" type="curve" smooth="yes"/>
      <point x="112" y="607"/>
      <point x="88" y="645"/>
      <point x="88" y="714" type="curve"/>
      <point x="25" y="714" type="line"/>
      <point x="25" y="628"/>
      <point x="68" y="575"/>
      <point x="162" y="542" type="curve" smooth="yes"/>
      <point x="343" y="479"/>
      <point x="404" y="383"/>
      <point x="404" y="243" type="curve" smooth="yes"/>
      <point x="404" y="105"/>
      <point x="345" y="35"/>
      <point x="256" y="35" type="curve" smooth="yes"/>
      <point x="147" y="35"/>
      <point x="103" y="104"/>
      <point x="103" y="248" type="curve" smooth="yes"/>
      <point x="103" y="469"/>
      <point x="249" y="689"/>
      <point x="347" y="689" type="curve" smooth="yes"/>
      <point x="384" y="689"/>
      <point x="408" y="672"/>
      <point x="408" y="598" type="curve"/>
      <point x="440" y="598"/>
      <point x="465" y="612"/>
      <point x="465" y="640" type="curve" smooth="yes"/>
      <point x="465" y="696"/>
      <point x="429" y="728"/>
      <point x="367" y="728" type="curve" smooth="yes"/>
      <point x="195" y="728"/>
      <point x="37" y="444"/>
      <point x="37" y="250" type="curve" smooth="yes"/>
      <point x="37" y="81"/>
      <point x="104" y="-10"/>
      <point x="256" y="-10" type="curve" smooth="yes"/>
      <point x="384" y="-10"/>
      <point x="471" y="83"/>
      <point x="471" y="243" type="curve" smooth="yes"/>
      <point x="471" y="397"/>
      <point x="386" y="516"/>
    </contour>
  </outline>
</glyph>
<glyph name="uni053F" format="2">
  <advance width="527"/>
  <unicode hex="053F"/>
  <note>
uni053F
</note>
  <outline>
    <contour>
      <point x="378" y="0" type="line"/>
      <point x="493" y="0" type="line"/>
      <point x="493" y="35" type="line"/>
      <point x="449" y="35"/>
      <point x="442" y="45"/>
      <point x="442" y="114" type="curve" smooth="yes"/>
      <point x="442" y="477" type="line"/>
      <point x="328" y="477" type="line"/>
      <point x="328" y="441" type="line"/>
      <point x="370" y="441"/>
      <point x="378" y="431"/>
      <point x="378" y="369" type="curve" smooth="yes"/>
      <point x="378" y="325" type="line" smooth="yes"/>
      <point x="378" y="264"/>
      <point x="324" y="207"/>
      <point x="247" y="207" type="curve" smooth="yes"/>
      <point x="177" y="207"/>
      <point x="144" y="243"/>
      <point x="144" y="337" type="curve" smooth="yes"/>
      <point x="144" y="714" type="line"/>
      <point x="29" y="714" type="line"/>
      <point x="29" y="679" type="line"/>
      <point x="71" y="679"/>
      <point x="80" y="669"/>
      <point x="80" y="600" type="curve" smooth="yes"/>
      <point x="80" y="327" type="line"/>
      <point x="80" y="215"/>
      <point x="133" y="157"/>
      <point x="229" y="157" type="curve" smooth="yes"/>
      <point x="286" y="157"/>
      <point x="343" y="183"/>
      <point x="377" y="244" type="curve"/>
      <point x="381" y="244" type="line"/>
      <point x="379" y="222"/>
      <point x="378" y="201"/>
      <point x="378" y="180" type="curve" smooth="yes"/>
    </contour>
  </outline>
</glyph>
<glyph name="uni0540" format="2">
  <advance width="443"/>
  <unicode hex="0540"/>
  <note>
uni0540
</note>
  <outline>
    <contour>
      <point x="328" y="-63" type="line"/>
      <point x="392" y="-63" type="line"/>
      <point x="392" y="-49" type="line" smooth="yes"/>
      <point x="392" y="42"/>
      <point x="353" y="80"/>
      <point x="275" y="90" type="curve" smooth="yes"/>
      <point x="47" y="118" type="line"/>
      <point x="41" y="74" type="line"/>
      <point x="269" y="46" type="line" smooth="yes"/>
      <point x="307" y="41"/>
      <point x="328" y="14"/>
      <point x="328" y="-46" type="curve" smooth="yes"/>
    </contour>
    <contour>
      <point x="105" y="74" type="line"/>
      <point x="112" y="462"/>
      <point x="179" y="683"/>
      <point x="277" y="683" type="curve" smooth="yes"/>
      <point x="319" y="683"/>
      <point x="342" y="658"/>
      <point x="342" y="579" type="curve"/>
      <point x="373" y="579"/>
      <point x="398" y="601"/>
      <point x="398" y="630" type="curve" smooth="yes"/>
      <point x="398" y="691"/>
      <point x="359" y="728"/>
      <point x="283" y="728" type="curve" smooth="yes"/>
      <point x="134" y="728"/>
      <point x="51" y="496"/>
      <point x="41" y="74" type="curve"/>
    </contour>
  </outline>
</glyph>
<glyph name="uni0541" format="2">
  <advance width="476"/>
  <unicode hex="0541"/>
  <note>
uni0541
</note>
  <outline>
    <contour>
      <point x="219" y="362" type="curve" smooth="yes"/>
      <point x="144" y="362"/>
      <point x="100" y="418"/>
      <point x="100" y="520" type="curve" smooth="yes"/>
      <point x="100" y="627"/>
      <point x="149" y="682"/>
      <point x="223" y="682" type="curve" smooth="yes"/>
      <point x="312" y="682"/>
      <point x="358" y="615"/>
      <point x="358" y="475" type="curve" smooth="yes"/>
      <point x="358" y="457"/>
      <point x="357" y="435"/>
      <point x="356" y="418" type="curve"/>
      <point x="333" y="388"/>
      <point x="280" y="362"/>
    </contour>
    <contour>
      <point x="353" y="361" type="curve"/>
      <point x="337" y="180"/>
      <point x="270" y="35"/>
      <point x="164" y="35" type="curve" smooth="yes"/>
      <point x="125" y="35"/>
      <point x="98" y="55"/>
      <point x="98" y="99" type="curve" smooth="yes"/>
      <point x="98" y="147"/>
      <point x="129" y="174"/>
      <point x="172" y="174" type="curve" smooth="yes"/>
      <point x="266" y="174"/>
      <point x="290" y="-10"/>
      <point x="412" y="-10" type="curve" smooth="yes"/>
      <point x="436" y="-10"/>
      <point x="449" y="11"/>
      <point x="449" y="35" type="curve"/>
      <point x="304" y="35"/>
      <point x="304" y="219"/>
      <point x="165" y="219" type="curve" smooth="yes"/>
      <point x="91" y="219"/>
      <point x="39" y="169"/>
      <point x="39" y="99" type="curve" smooth="yes"/>
      <point x="39" y="32"/>
      <point x="85" y="-10"/>
      <point x="160" y="-10" type="curve" smooth="yes"/>
      <point x="324" y="-10"/>
      <point x="426" y="221"/>
      <point x="426" y="456" type="curve" smooth="yes"/>
      <point x="426" y="638"/>
      <point x="345" y="727"/>
      <point x="223" y="727" type="curve" smooth="yes"/>
      <point x="111" y="727"/>
      <point x="34" y="647"/>
      <point x="34" y="520" type="curve" smooth="yes"/>
      <point x="34" y="400"/>
      <point x="106" y="317"/>
      <point x="214" y="317" type="curve" smooth="yes"/>
      <point x="278" y="317"/>
      <point x="324" y="337"/>
    </contour>
  </outline>
</glyph>
<glyph name="uni0542" format="2">
  <advance width="583"/>
  <unicode hex="0542"/>
  <note>
uni0542
</note>
  <outline>
    <contour>
      <point x="438" y="0" type="line"/>
      <point x="578" y="0" type="line"/>
      <point x="578" y="43" type="line"/>
      <point x="438" y="43" type="line"/>
    </contour>
    <contour>
      <point x="258" y="724" type="curve" smooth="yes"/>
      <point x="119" y="724"/>
      <point x="60" y="627"/>
      <point x="60" y="510" type="curve" smooth="yes"/>
      <point x="60" y="362" type="line"/>
      <point x="124" y="362" type="line"/>
      <point x="124" y="508" type="line" smooth="yes"/>
      <point x="124" y="601"/>
      <point x="161" y="677"/>
      <point x="258" y="677" type="curve" smooth="yes"/>
      <point x="339" y="677"/>
      <point x="389" y="634"/>
      <point x="389" y="504" type="curve" smooth="yes"/>
      <point x="389" y="0" type="line"/>
      <point x="453" y="0" type="line"/>
      <point x="453" y="499" type="line" smooth="yes"/>
      <point x="453" y="659"/>
      <point x="376" y="724"/>
    </contour>
  </outline>
</glyph>
<glyph name="uni0543" format="2">
  <advance width="551"/>
  <unicode hex="0543"/>
  <note>
uni0543
</note>
  <outline>
    <contour>
      <point x="490" y="0" type="line"/>
      <point x="490" y="456"/>
      <point x="404" y="621"/>
      <point x="44" y="621" type="curve"/>
      <point x="44" y="578" type="line"/>
      <point x="360" y="578"/>
      <point x="427" y="428"/>
      <point x="427" y="43" type="curve"/>
      <point x="244" y="43" type="line" smooth="yes"/>
      <point x="151" y="43"/>
      <point x="109" y="80"/>
      <point x="109" y="189" type="curve" smooth="yes"/>
      <point x="109" y="412"/>
      <point x="250" y="683"/>
      <point x="378" y="683" type="curve" smooth="yes"/>
      <point x="421" y="683"/>
      <point x="442" y="660"/>
      <point x="442" y="580" type="curve"/>
      <point x="474" y="580"/>
      <point x="499" y="594"/>
      <point x="499" y="622" type="curve" smooth="yes"/>
      <point x="499" y="684"/>
      <point x="462" y="728"/>
      <point x="395" y="728" type="curve" smooth="yes"/>
      <point x="228" y="728"/>
      <point x="42" y="433"/>
      <point x="42" y="191" type="curve" smooth="yes"/>
      <point x="42" y="58"/>
      <point x="102" y="0"/>
      <point x="244" y="0" type="curve" smooth="yes"/>
    </contour>
  </outline>
</glyph>
<glyph name="uni0544" format="2">
  <advance width="615"/>
  <unicode hex="0544"/>
  <note>
uni0544
</note>
  <outline>
    <contour>
      <point x="358" y="714" type="line"/>
      <point x="358" y="679" type="line"/>
      <point x="403" y="679"/>
      <point x="413" y="669"/>
      <point x="413" y="599" type="curve" smooth="yes"/>
      <point x="413" y="216" type="line" smooth="yes"/>
      <point x="413" y="123"/>
      <point x="376" y="37"/>
      <point x="280" y="37" type="curve" smooth="yes"/>
      <point x="198" y="37"/>
      <point x="148" y="90"/>
      <point x="148" y="220" type="curve" smooth="yes"/>
      <point x="148" y="714" type="line"/>
      <point x="33" y="714" type="line"/>
      <point x="33" y="679" type="line"/>
      <point x="77" y="679"/>
      <point x="84" y="669"/>
      <point x="84" y="600" type="curve" smooth="yes"/>
      <point x="84" y="215" type="line" smooth="yes"/>
      <point x="84" y="55"/>
      <point x="161" y="-10"/>
      <point x="279" y="-10" type="curve" smooth="yes"/>
      <point x="417" y="-10"/>
      <point x="477" y="87"/>
      <point x="477" y="204" type="curve" smooth="yes"/>
      <point x="477" y="714" type="line"/>
    </contour>
    <contour>
      <point x="500" y="669" type="line" smooth="yes"/>
      <point x="537" y="669"/>
      <point x="548" y="649"/>
      <point x="548" y="573" type="curve"/>
      <point x="580" y="573"/>
      <point x="598" y="600"/>
      <point x="598" y="629" type="curve" smooth="yes"/>
      <point x="598" y="686"/>
      <point x="568" y="714"/>
      <point x="505" y="714" type="curve" smooth="yes"/>
      <point x="467" y="714" type="line"/>
      <point x="467" y="669" type="line"/>
    </contour>
  </outline>
</glyph>
<glyph name="uni0545" format="2">
  <advance width="487"/>
  <unicode hex="0545"/>
  <note>
uni0545
</note>
  <outline>
    <contour>
      <point x="234" y="-11" type="curve" smooth="yes"/>
      <point x="356" y="-11"/>
      <point x="446" y="56"/>
      <point x="446" y="198" type="curve" smooth="yes"/>
      <point x="446" y="323"/>
      <point x="379" y="370"/>
      <point x="315" y="382" type="curve"/>
      <point x="387" y="408"/>
      <point x="424" y="459"/>
      <point x="424" y="559" type="curve" smooth="yes"/>
      <point x="424" y="671"/>
      <point x="354" y="724"/>
      <point x="250" y="724" type="curve" smooth="yes"/>
      <point x="116" y="724"/>
      <point x="80" y="641"/>
      <point x="80" y="594" type="curve" smooth="yes"/>
      <point x="80" y="553"/>
      <point x="103" y="540"/>
      <point x="130" y="540" type="curve"/>
      <point x="130" y="615"/>
      <point x="146" y="679"/>
      <point x="250" y="679" type="curve" smooth="yes"/>
      <point x="322" y="679"/>
      <point x="362" y="642"/>
      <point x="362" y="553" type="curve" smooth="yes"/>
      <point x="362" y="454"/>
      <point x="322" y="402"/>
      <point x="245" y="402" type="curve" smooth="yes"/>
      <point x="39" y="402" type="line"/>
      <point x="39" y="359" type="line"/>
      <point x="244" y="359" type="line" smooth="yes"/>
      <point x="334" y="359"/>
      <point x="385" y="305"/>
      <point x="385" y="196" type="curve" smooth="yes"/>
      <point x="385" y="75"/>
      <point x="323" y="34"/>
      <point x="236" y="34" type="curve" smooth="yes"/>
      <point x="130" y="34"/>
      <point x="93" y="103"/>
      <point x="93" y="191" type="curve"/>
      <point x="59" y="191"/>
      <point x="43" y="171"/>
      <point x="43" y="133" type="curve" smooth="yes"/>
      <point x="43" y="75"/>
      <point x="94" y="-11"/>
    </contour>
  </outline>
</glyph>
<glyph name="uni0546" format="2">
  <advance width="516"/>
  <unicode hex="0546"/>
  <note>
uni0546
</note>
  <outline>
    <contour>
      <point x="262" y="-10" type="curve" smooth="yes"/>
      <point x="380" y="-10"/>
      <point x="456" y="55"/>
      <point x="456" y="215" type="curve" smooth="yes"/>
      <point x="456" y="414" type="line"/>
      <point x="392" y="414" type="line"/>
      <point x="392" y="210" type="line" smooth="yes"/>
      <point x="392" y="80"/>
      <point x="343" y="37"/>
      <point x="261" y="37" type="curve" smooth="yes"/>
      <point x="165" y="37"/>
      <point x="127" y="102"/>
      <point x="127" y="206" type="curve" smooth="yes"/>
      <point x="127" y="349"/>
      <point x="157" y="490"/>
      <point x="208" y="632" type="curve"/>
      <point x="159" y="619" type="line"/>
      <point x="96" y="476"/>
      <point x="61" y="344"/>
      <point x="61" y="204" type="curve" smooth="yes"/>
      <point x="61" y="76"/>
      <point x="124" y="-10"/>
    </contour>
    <contour>
      <point x="208" y="632" type="line"/>
      <point x="113" y="632"/>
      <point x="93" y="670"/>
      <point x="93" y="765" type="curve"/>
      <point x="56" y="765"/>
      <point x="34" y="744"/>
      <point x="34" y="715" type="curve" smooth="yes"/>
      <point x="34" y="639"/>
      <point x="76" y="591"/>
      <point x="180" y="591" type="curve"/>
    </contour>
  </outline>
</glyph>
<glyph name="uni0547" format="2">
  <advance width="499"/>
  <unicode hex="0547"/>
  <note>
uni0547
</note>
  <outline>
    <contour>
      <point x="30" y="656" type="line"/>
      <point x="59" y="672"/>
      <point x="92" y="681"/>
      <point x="118" y="681" type="curve" smooth="yes"/>
      <point x="242" y="681"/>
      <point x="260" y="573"/>
      <point x="375" y="573" type="curve" smooth="yes"/>
      <point x="447" y="573"/>
      <point x="483" y="630"/>
      <point x="483" y="714" type="curve"/>
      <point x="445" y="714" type="line"/>
      <point x="445" y="662"/>
      <point x="424" y="628"/>
      <point x="371" y="628" type="curve" smooth="yes"/>
      <point x="282" y="628"/>
      <point x="243" y="723"/>
      <point x="124" y="723" type="curve" smooth="yes"/>
      <point x="96" y="723"/>
      <point x="60" y="714"/>
      <point x="30" y="698" type="curve"/>
    </contour>
    <contour>
      <point x="297" y="620" type="curve"/>
      <point x="258" y="633" type="line"/>
      <point x="134" y="505"/>
      <point x="52" y="351"/>
      <point x="52" y="204" type="curve" smooth="yes"/>
      <point x="52" y="76"/>
      <point x="115" y="-10"/>
      <point x="253" y="-10" type="curve" smooth="yes"/>
      <point x="371" y="-10"/>
      <point x="447" y="55"/>
      <point x="447" y="215" type="curve" smooth="yes"/>
      <point x="447" y="295" type="line"/>
      <point x="383" y="295" type="line"/>
      <point x="383" y="210" type="line" smooth="yes"/>
      <point x="383" y="80"/>
      <point x="334" y="37"/>
      <point x="252" y="37" type="curve" smooth="yes"/>
      <point x="156" y="37"/>
      <point x="118" y="102"/>
      <point x="118" y="206" type="curve" smooth="yes"/>
      <point x="118" y="356"/>
      <point x="196" y="500"/>
    </contour>
  </outline>
</glyph>
<glyph name="uni0548" format="2">
  <advance width="560"/>
  <unicode hex="0548"/>
  <note>
uni0548
</note>
  <anchor x="279" y="714" name="top"/>
  <outline>
    <contour>
      <point x="201" y="0" type="line"/>
      <point x="201" y="35" type="line"/>
      <point x="157" y="35"/>
      <point x="146" y="45"/>
      <point x="146" y="115" type="curve" smooth="yes"/>
      <point x="146" y="508" type="line" smooth="yes"/>
      <point x="146" y="601"/>
      <point x="183" y="677"/>
      <point x="280" y="677" type="curve" smooth="yes"/>
      <point x="361" y="677"/>
      <point x="411" y="634"/>
      <point x="411" y="504" type="curve" smooth="yes"/>
      <point x="411" y="0" type="line"/>
      <point x="526" y="0" type="line"/>
      <point x="526" y="35" type="line"/>
      <point x="482" y="35"/>
      <point x="475" y="45"/>
      <point x="475" y="114" type="curve" smooth="yes"/>
      <point x="475" y="499" type="line" smooth="yes"/>
      <point x="475" y="659"/>
      <point x="398" y="724"/>
      <point x="280" y="724" type="curve" smooth="yes"/>
      <point x="141" y="724"/>
      <point x="82" y="627"/>
      <point x="82" y="510" type="curve" smooth="yes"/>
      <point x="82" y="0" type="line"/>
    </contour>
  </outline>
</glyph>
<glyph name="uni0549" format="2">
  <advance width="477"/>
  <unicode hex="0549"/>
  <note>
uni0549
</note>
  <outline>
    <contour>
      <point x="180" y="111" type="curve"/>
      <point x="212" y="91" type="line"/>
      <point x="352" y="208"/>
      <point x="435" y="363"/>
      <point x="435" y="510" type="curve" smooth="yes"/>
      <point x="435" y="638"/>
      <point x="373" y="724"/>
      <point x="234" y="724" type="curve" smooth="yes"/>
      <point x="116" y="724"/>
      <point x="40" y="659"/>
      <point x="40" y="499" type="curve" smooth="yes"/>
      <point x="40" y="478" type="line"/>
      <point x="104" y="478" type="line"/>
      <point x="104" y="504" type="line" smooth="yes"/>
      <point x="104" y="634"/>
      <point x="154" y="677"/>
      <point x="235" y="677" type="curve" smooth="yes"/>
      <point x="332" y="677"/>
      <point x="369" y="612"/>
      <point x="369" y="508" type="curve" smooth="yes"/>
      <point x="369" y="358"/>
      <point x="291" y="222"/>
    </contour>
    <contour>
      <point x="425" y="-10" type="curve"/>
      <point x="425" y="35" type="line"/>
      <point x="296" y="42"/>
      <point x="168" y="143"/>
      <point x="90" y="283" type="curve"/>
      <point x="25" y="243" type="line"/>
      <point x="122" y="102"/>
      <point x="261" y="1"/>
    </contour>
  </outline>
</glyph>
<glyph name="uni054A" format="2">
  <advance width="569"/>
  <unicode hex="054A"/>
  <note>
uni054A
</note>
  <outline>
    <contour>
      <point x="485" y="114" type="curve" smooth="yes"/>
      <point x="485" y="499" type="line" smooth="yes"/>
      <point x="485" y="659"/>
      <point x="398" y="724"/>
      <point x="269" y="724" type="curve" smooth="yes"/>
      <point x="116" y="724"/>
      <point x="51" y="627"/>
      <point x="51" y="510" type="curve" smooth="yes"/>
      <point x="51" y="335" type="line"/>
      <point x="115" y="335" type="line"/>
      <point x="115" y="508" type="line" smooth="yes"/>
      <point x="115" y="601"/>
      <point x="161" y="679"/>
      <point x="268" y="679" type="curve" smooth="yes"/>
      <point x="364" y="679"/>
      <point x="421" y="634"/>
      <point x="421" y="504" type="curve" smooth="yes"/>
      <point x="421" y="0" type="line"/>
      <point x="536" y="0" type="line"/>
      <point x="536" y="35" type="line"/>
      <point x="491" y="35"/>
      <point x="485" y="45"/>
    </contour>
    <contour>
      <point x="235" y="695" type="line"/>
      <point x="235" y="167" type="line"/>
      <point x="299" y="167" type="line"/>
      <point x="299" y="695" type="line"/>
    </contour>
  </outline>
</glyph>
<glyph name="uni054B" format="2">
  <advance width="462"/>
  <unicode hex="054B"/>
  <note>
uni054B
</note>
  <outline>
    <contour>
      <point x="33" y="0" type="line"/>
      <point x="95" y="0" type="line"/>
      <point x="95" y="185" type="line"/>
      <point x="33" y="185" type="line"/>
    </contour>
    <contour>
      <point x="370" y="0" type="line"/>
      <point x="434" y="0" type="line"/>
      <point x="434" y="13" type="line" smooth="yes"/>
      <point x="434" y="102"/>
      <point x="395" y="131"/>
      <point x="325" y="131" type="curve" smooth="yes"/>
      <point x="64" y="131" type="line"/>
      <point x="64" y="86" type="line"/>
      <point x="303" y="86" type="line" smooth="yes"/>
      <point x="353" y="86"/>
      <point x="370" y="64"/>
      <point x="370" y="15" type="curve" smooth="yes"/>
    </contour>
    <contour>
      <point x="186" y="150" type="curve"/>
      <point x="221" y="171" type="line"/>
      <point x="221" y="257"/>
      <point x="183" y="296"/>
      <point x="148" y="343" type="curve" smooth="yes"/>
      <point x="118" y="384"/>
      <point x="91" y="429"/>
      <point x="91" y="512" type="curve" smooth="yes"/>
      <point x="91" y="626"/>
      <point x="140" y="682"/>
      <point x="224" y="682" type="curve" smooth="yes"/>
      <point x="312" y="682"/>
      <point x="352" y="614"/>
      <point x="352" y="486" type="curve" smooth="yes"/>
      <point x="352" y="389"/>
      <point x="326" y="308"/>
      <point x="288" y="250" type="curve" smooth="yes"/>
      <point x="238" y="174"/>
      <point x="166" y="131"/>
      <point x="98" y="131" type="curve"/>
      <point x="212" y="131" type="line"/>
      <point x="328" y="189"/>
      <point x="418" y="314"/>
      <point x="418" y="488" type="curve" smooth="yes"/>
      <point x="418" y="634"/>
      <point x="355" y="727"/>
      <point x="224" y="727" type="curve" smooth="yes"/>
      <point x="101" y="727"/>
      <point x="24" y="640"/>
      <point x="24" y="510" type="curve" smooth="yes"/>
      <point x="24" y="411"/>
      <point x="58" y="362"/>
      <point x="95" y="321" type="curve" smooth="yes"/>
      <point x="138" y="274"/>
      <point x="186" y="238"/>
    </contour>
  </outline>
</glyph>
<glyph name="uni054C" format="2">
  <advance width="643"/>
  <unicode hex="054C"/>
  <note>
uni054C
</note>
  <outline>
    <contour>
      <point x="201" y="0" type="line"/>
      <point x="201" y="35" type="line"/>
      <point x="157" y="35"/>
      <point x="146" y="45"/>
      <point x="146" y="115" type="curve" smooth="yes"/>
      <point x="146" y="508" type="line" smooth="yes"/>
      <point x="146" y="601"/>
      <point x="183" y="677"/>
      <point x="280" y="677" type="curve" smooth="yes"/>
      <point x="361" y="677"/>
      <point x="411" y="634"/>
      <point x="411" y="504" type="curve" smooth="yes"/>
      <point x="411" y="0" type="line"/>
      <point x="526" y="0" type="line"/>
      <point x="526" y="35" type="line"/>
      <point x="482" y="35"/>
      <point x="475" y="45"/>
      <point x="475" y="114" type="curve" smooth="yes"/>
      <point x="475" y="499" type="line" smooth="yes"/>
      <point x="475" y="659"/>
      <point x="398" y="724"/>
      <point x="280" y="724" type="curve" smooth="yes"/>
      <point x="141" y="724"/>
      <point x="82" y="627"/>
      <point x="82" y="510" type="curve" smooth="yes"/>
      <point x="82" y="0" type="line"/>
    </contour>
    <contour>
      <point x="471" y="395" type="curve"/>
      <point x="470" y="350" type="line"/>
      <point x="480" y="356"/>
      <point x="495" y="358"/>
      <point x="510" y="358" type="curve" smooth="yes"/>
      <point x="545" y="358"/>
      <point x="562" y="336"/>
      <point x="562" y="276" type="curve" smooth="yes"/>
      <point x="562" y="197" type="line"/>
      <point x="625" y="197" type="line"/>
      <point x="625" y="274" type="line" smooth="yes"/>
      <point x="625" y="373"/>
      <point x="591" y="403"/>
      <point x="525" y="403" type="curve" smooth="yes"/>
      <point x="502" y="403"/>
      <point x="486" y="399"/>
    </contour>
  </outline>
</glyph>
<glyph name="uni054D" format="2">
  <advance width="560"/>
  <unicode hex="054D"/>
  <note>
uni054D
</note>
  <outline>
    <contour>
      <point x="358" y="714" type="line"/>
      <point x="358" y="679" type="line"/>
      <point x="403" y="679"/>
      <point x="413" y="669"/>
      <point x="413" y="599" type="curve" smooth="yes"/>
      <point x="413" y="216" type="line" smooth="yes"/>
      <point x="413" y="123"/>
      <point x="376" y="37"/>
      <point x="280" y="37" type="curve" smooth="yes"/>
      <point x="198" y="37"/>
      <point x="148" y="90"/>
      <point x="148" y="220" type="curve" smooth="yes"/>
      <point x="148" y="714" type="line"/>
      <point x="33" y="714" type="line"/>
      <point x="33" y="679" type="line"/>
      <point x="77" y="679"/>
      <point x="84" y="669"/>
      <point x="84" y="600" type="curve" smooth="yes"/>
      <point x="84" y="215" type="line" smooth="yes"/>
      <point x="84" y="55"/>
      <point x="161" y="-10"/>
      <point x="279" y="-10" type="curve" smooth="yes"/>
      <point x="418" y="-10"/>
      <point x="477" y="87"/>
      <point x="477" y="204" type="curve" smooth="yes"/>
      <point x="477" y="714" type="line"/>
    </contour>
  </outline>
</glyph>
<glyph name="uni054E" format="2">
  <advance width="572"/>
  <unicode hex="054E"/>
  <note>
uni054E
</note>
  <outline>
    <contour>
      <point x="328" y="714" type="line"/>
      <point x="328" y="679" type="line"/>
      <point x="370" y="679"/>
      <point x="378" y="669"/>
      <point x="378" y="600" type="curve" smooth="yes"/>
      <point x="378" y="323" type="line" smooth="yes"/>
      <point x="378" y="262"/>
      <point x="324" y="207"/>
      <point x="247" y="207" type="curve" smooth="yes"/>
      <point x="177" y="207"/>
      <point x="144" y="252"/>
      <point x="144" y="346" type="curve" smooth="yes"/>
      <point x="144" y="477" type="line"/>
      <point x="29" y="477" type="line"/>
      <point x="29" y="441" type="line"/>
      <point x="71" y="441"/>
      <point x="80" y="431"/>
      <point x="80" y="363" type="curve" smooth="yes"/>
      <point x="80" y="327" type="line" smooth="yes"/>
      <point x="80" y="215"/>
      <point x="133" y="157"/>
      <point x="229" y="157" type="curve" smooth="yes"/>
      <point x="286" y="157"/>
      <point x="343" y="183"/>
      <point x="377" y="244" type="curve"/>
      <point x="381" y="244" type="line"/>
      <point x="380" y="222"/>
      <point x="378" y="201"/>
      <point x="378" y="180" type="curve" smooth="yes"/>
      <point x="378" y="0" type="line"/>
      <point x="442" y="0" type="line"/>
      <point x="442" y="714" type="line"/>
    </contour>
    <contour>
      <point x="429" y="0" type="line"/>
      <point x="566" y="0" type="line"/>
      <point x="566" y="43" type="line"/>
      <point x="429" y="43" type="line"/>
    </contour>
  </outline>
</glyph>
<glyph name="uni054F" format="2">
  <advance width="414"/>
  <unicode hex="054F"/>
  <note>
uni054F
</note>
  <outline>
    <contour>
      <point x="202" y="-10" type="curve" smooth="yes"/>
      <point x="314" y="-10"/>
      <point x="377" y="60"/>
      <point x="377" y="181" type="curve" smooth="yes"/>
      <point x="377" y="289"/>
      <point x="321" y="344"/>
      <point x="234" y="394" type="curve" smooth="yes"/>
      <point x="145" y="445"/>
      <point x="112" y="479"/>
      <point x="112" y="561" type="curve" smooth="yes"/>
      <point x="112" y="636"/>
      <point x="147" y="679"/>
      <point x="213" y="679" type="curve" smooth="yes"/>
      <point x="279" y="679"/>
      <point x="314" y="632"/>
      <point x="314" y="559" type="curve"/>
      <point x="345" y="559"/>
      <point x="361" y="576"/>
      <point x="361" y="611" type="curve" smooth="yes"/>
      <point x="361" y="663"/>
      <point x="313" y="724"/>
      <point x="218" y="724" type="curve" smooth="yes"/>
      <point x="119" y="724"/>
      <point x="57" y="652"/>
      <point x="57" y="555" type="curve" smooth="yes"/>
      <point x="57" y="443"/>
      <point x="107" y="385"/>
      <point x="190" y="336" type="curve" smooth="yes"/>
      <point x="281" y="282"/>
      <point x="321" y="254"/>
      <point x="321" y="161" type="curve" smooth="yes"/>
      <point x="321" y="74"/>
      <point x="281" y="35"/>
      <point x="207" y="35" type="curve" smooth="yes"/>
      <point x="129" y="35"/>
      <point x="87" y="92"/>
      <point x="84" y="184" type="curve"/>
      <point x="57" y="184"/>
      <point x="41" y="157"/>
      <point x="41" y="125" type="curve" smooth="yes"/>
      <point x="41" y="66"/>
      <point x="81" y="-10"/>
    </contour>
  </outline>
</glyph>
<glyph name="uni0551" format="2">
  <advance width="453"/>
  <unicode hex="0551"/>
  <note>
uni0551
</note>
  <outline>
    <contour>
      <point x="267" y="384" type="curve"/>
      <point x="267" y="387" type="line"/>
      <point x="348" y="414"/>
      <point x="397" y="471"/>
      <point x="397" y="563" type="curve" smooth="yes"/>
      <point x="397" y="657"/>
      <point x="341" y="724"/>
      <point x="224" y="724" type="curve" smooth="yes"/>
      <point x="90" y="724"/>
      <point x="48" y="628"/>
      <point x="48" y="561" type="curve" smooth="yes"/>
      <point x="48" y="477"/>
      <point x="79" y="426"/>
      <point x="164" y="392" type="curve"/>
      <point x="164" y="389" type="line"/>
      <point x="32" y="345" type="line"/>
      <point x="43" y="287" type="line"/>
      <point x="213" y="363" type="line"/>
      <point x="305" y="337"/>
      <point x="352" y="291"/>
      <point x="352" y="185" type="curve" smooth="yes"/>
      <point x="352" y="87"/>
      <point x="298" y="35"/>
      <point x="216" y="35" type="curve" smooth="yes"/>
      <point x="133" y="35"/>
      <point x="89" y="71"/>
      <point x="89" y="190" type="curve"/>
      <point x="56" y="190"/>
      <point x="30" y="174"/>
      <point x="30" y="143" type="curve" smooth="yes"/>
      <point x="30" y="50"/>
      <point x="95" y="-10"/>
      <point x="218" y="-10" type="curve" smooth="yes"/>
      <point x="344" y="-10"/>
      <point x="419" y="71"/>
      <point x="419" y="186" type="curve" smooth="yes"/>
      <point x="419" y="302"/>
      <point x="365" y="358"/>
    </contour>
    <contour>
      <point x="110" y="561" type="curve" smooth="yes"/>
      <point x="110" y="614"/>
      <point x="137" y="679"/>
      <point x="223" y="679" type="curve" smooth="yes"/>
      <point x="296" y="679"/>
      <point x="334" y="636"/>
      <point x="334" y="561" type="curve" smooth="yes"/>
      <point x="334" y="481"/>
      <point x="300" y="443"/>
      <point x="218" y="410" type="curve"/>
      <point x="131" y="443"/>
      <point x="110" y="487"/>
    </contour>
  </outline>
</glyph>
<glyph name="uni0552" format="2">
  <advance width="451"/>
  <unicode hex="0552"/>
  <note>
uni0552
</note>
  <outline>
    <contour>
      <point x="142" y="527" type="line"/>
      <point x="142" y="484" type="line"/>
      <point x="181" y="484" type="line" smooth="yes"/>
      <point x="229" y="484"/>
      <point x="240" y="470"/>
      <point x="282" y="354" type="curve" smooth="yes"/>
      <point x="331" y="218"/>
      <point x="346" y="207"/>
      <point x="397" y="207" type="curve" smooth="yes"/>
      <point x="441" y="207" type="line"/>
      <point x="441" y="250" type="line"/>
      <point x="425" y="250" type="line" smooth="yes"/>
      <point x="388" y="250"/>
      <point x="381" y="257"/>
      <point x="337" y="378" type="curve" smooth="yes"/>
      <point x="290" y="508"/>
      <point x="273" y="527"/>
      <point x="191" y="527" type="curve" smooth="yes"/>
    </contour>
    <contour>
      <point x="148" y="114" type="curve" smooth="yes"/>
      <point x="148" y="714" type="line"/>
      <point x="33" y="714" type="line"/>
      <point x="33" y="679" type="line"/>
      <point x="77" y="679"/>
      <point x="84" y="669"/>
      <point x="84" y="600" type="curve" smooth="yes"/>
      <point x="84" y="0" type="line"/>
      <point x="199" y="0" type="line"/>
      <point x="199" y="35" type="line"/>
      <point x="157" y="35"/>
      <point x="148" y="45"/>
    </contour>
  </outline>
</glyph>
<glyph name="uni0553" format="2">
  <advance width="561"/>
  <unicode hex="0553"/>
  <note>
uni0553
</note>
  <outline>
    <contour>
      <point x="326" y="134" type="line" smooth="yes"/>
      <point x="468" y="134"/>
      <point x="526" y="238"/>
      <point x="526" y="367" type="curve" smooth="yes"/>
      <point x="526" y="506"/>
      <point x="457" y="590"/>
      <point x="330" y="590" type="curve" smooth="yes"/>
      <point x="311" y="590" type="line"/>
      <point x="311" y="714" type="line"/>
      <point x="199" y="714" type="line"/>
      <point x="199" y="679" type="line"/>
      <point x="242" y="679"/>
      <point x="250" y="669"/>
      <point x="250" y="604" type="curve" smooth="yes"/>
      <point x="250" y="590" type="line"/>
      <point x="231" y="590" type="line" smooth="yes"/>
      <point x="97" y="590"/>
      <point x="35" y="497"/>
      <point x="35" y="363" type="curve" smooth="yes"/>
      <point x="35" y="228"/>
      <point x="95" y="134"/>
      <point x="235" y="134" type="curve" smooth="yes"/>
      <point x="250" y="134" type="line"/>
      <point x="250" y="0" type="line"/>
      <point x="362" y="0" type="line"/>
      <point x="362" y="35" type="line"/>
      <point x="317" y="35"/>
      <point x="311" y="46"/>
      <point x="311" y="110" type="curve" smooth="yes"/>
      <point x="311" y="134" type="line"/>
    </contour>
    <contour>
      <point x="250" y="177" type="line"/>
      <point x="240" y="177" type="line" smooth="yes"/>
      <point x="137" y="177"/>
      <point x="95" y="240"/>
      <point x="95" y="363" type="curve" smooth="yes"/>
      <point x="95" y="479"/>
      <point x="137" y="547"/>
      <point x="235" y="547" type="curve" smooth="yes"/>
      <point x="250" y="547" type="line"/>
    </contour>
    <contour>
      <point x="311" y="547" type="line"/>
      <point x="326" y="547" type="line" smooth="yes"/>
      <point x="425" y="547"/>
      <point x="466" y="479"/>
      <point x="466" y="367" type="curve" smooth="yes"/>
      <point x="466" y="240"/>
      <point x="421" y="177"/>
      <point x="324" y="177" type="curve" smooth="yes"/>
      <point x="311" y="177" type="line"/>
    </contour>
  </outline>
</glyph>
<glyph name="uni0554" format="2">
  <advance width="448"/>
  <unicode hex="0554"/>
  <note>
uni0554
</note>
  <outline>
    <contour>
      <point x="82" y="0" type="line"/>
      <point x="146" y="0" type="line"/>
      <point x="146" y="350" type="line"/>
      <point x="231" y="350" type="line" smooth="yes"/>
      <point x="344" y="350"/>
      <point x="407" y="415"/>
      <point x="407" y="536" type="curve" smooth="yes"/>
      <point x="407" y="661"/>
      <point x="355" y="724"/>
      <point x="244" y="724" type="curve" smooth="yes"/>
      <point x="140" y="724"/>
      <point x="82" y="650"/>
      <point x="82" y="501" type="curve" smooth="yes"/>
    </contour>
    <contour>
      <point x="226" y="393" type="curve" smooth="yes"/>
      <point x="146" y="393" type="line"/>
      <point x="146" y="500" type="line" smooth="yes"/>
      <point x="146" y="629"/>
      <point x="176" y="679"/>
      <point x="243" y="679" type="curve" smooth="yes"/>
      <point x="312" y="679"/>
      <point x="343" y="633"/>
      <point x="343" y="536" type="curve" smooth="yes"/>
      <point x="343" y="434"/>
      <point x="294" y="393"/>
    </contour>
    <contour>
      <point x="11" y="207" type="line"/>
      <point x="401" y="207" type="line"/>
      <point x="401" y="250" type="line"/>
      <point x="11" y="250" type="line"/>
    </contour>
  </outline>
</glyph>
<glyph name="uni0555" format="2">
  <advance width="570"/>
  <unicode hex="0555"/>
  <note>
uni0555
</note>
  <anchor x="285" y="714" name="top"/>
  <outline>
    <contour>
      <point x="284" y="-10" type="curve" smooth="yes"/>
      <point x="437" y="-10"/>
      <point x="525" y="128"/>
      <point x="525" y="358" type="curve" smooth="yes"/>
      <point x="525" y="602"/>
      <point x="445" y="725"/>
      <point x="285" y="725" type="curve" smooth="yes"/>
      <point x="124" y="725"/>
      <point x="44" y="592"/>
      <point x="44" y="359" type="curve" smooth="yes"/>
      <point x="44" y="137"/>
      <point x="122" y="-10"/>
    </contour>
    <contour>
      <point x="285" y="37" type="curve" smooth="yes"/>
      <point x="168" y="37"/>
      <point x="111" y="157"/>
      <point x="111" y="358" type="curve" smooth="yes"/>
      <point x="111" y="567"/>
      <point x="163" y="678"/>
      <point x="286" y="678" type="curve" smooth="yes"/>
      <point x="413" y="678"/>
      <point x="459" y="567"/>
      <point x="459" y="358" type="curve" smooth="yes"/>
      <point x="459" y="152"/>
      <point x="403" y="37"/>
    </contour>
  </outline>
</glyph>
<glyph name="uni0556" format="2">
  <advance width="511"/>
  <unicode hex="0556"/>
  <note>
uni0556
</note>
  <outline>
    <contour>
      <point x="252" y="-10" type="curve" smooth="yes"/>
      <point x="410" y="-10"/>
      <point x="478" y="74"/>
      <point x="478" y="189" type="curve" smooth="yes"/>
      <point x="478" y="315"/>
      <point x="425" y="386"/>
      <point x="260" y="408" type="curve" smooth="yes"/>
      <point x="136" y="425"/>
      <point x="110" y="467"/>
      <point x="110" y="558" type="curve" smooth="yes"/>
      <point x="110" y="636"/>
      <point x="144" y="679"/>
      <point x="226" y="679" type="curve"/>
      <point x="226" y="724" type="line"/>
      <point x="111" y="724"/>
      <point x="48" y="656"/>
      <point x="48" y="558" type="curve" smooth="yes"/>
      <point x="48" y="448"/>
      <point x="92" y="384"/>
      <point x="234" y="365" type="curve" smooth="yes"/>
      <point x="378" y="346"/>
      <point x="416" y="300"/>
      <point x="416" y="186" type="curve" smooth="yes"/>
      <point x="416" y="86"/>
      <point x="368" y="35"/>
      <point x="246" y="35" type="curve" smooth="yes"/>
      <point x="128" y="35"/>
      <point x="76" y="77"/>
      <point x="76" y="185" type="curve"/>
      <point x="46" y="185"/>
      <point x="27" y="167"/>
      <point x="27" y="138" type="curve" smooth="yes"/>
      <point x="27" y="59"/>
      <point x="90" y="-10"/>
    </contour>
    <contour>
      <point x="226" y="724" type="line"/>
      <point x="226" y="5" type="line"/>
      <point x="285" y="5" type="line"/>
      <point x="285" y="724" type="line"/>
    </contour>
  </outline>
</glyph>
<glyph name="uni0559" format="2">
  <advance width="172"/>
  <unicode hex="0559"/>
  <note>
uni0559
</note>
  <outline>
    <contour>
      <point x="130" y="515" type="curve"/>
      <point x="130" y="571" type="line"/>
      <point x="95" y="572"/>
      <point x="79" y="597"/>
      <point x="79" y="630" type="curve" smooth="yes"/>
      <point x="79" y="667"/>
      <point x="99" y="704"/>
      <point x="135" y="734" type="curve"/>
      <point x="122" y="760" type="line"/>
      <point x="69" y="727"/>
      <point x="36" y="673"/>
      <point x="36" y="615" type="curve" smooth="yes"/>
      <point x="36" y="555"/>
      <point x="67" y="516"/>
    </contour>
  </outline>
</glyph>
<glyph name="uni055A" format="2">
  <advance width="172"/>
  <unicode hex="055A"/>
  <note>
uni055A
</note>
  <outline>
    <contour>
      <point x="41" y="760" type="curve"/>
      <point x="41" y="704" type="line"/>
      <point x="76" y="703"/>
      <point x="91" y="679"/>
      <point x="91" y="646" type="curve" smooth="yes"/>
      <point x="91" y="608"/>
      <point x="72" y="571"/>
      <point x="36" y="541" type="curve"/>
      <point x="50" y="515" type="line"/>
      <point x="102" y="548"/>
      <point x="135" y="602"/>
      <point x="135" y="660" type="curve" smooth="yes"/>
      <point x="135" y="720"/>
      <point x="105" y="759"/>
    </contour>
  </outline>
</glyph>
<glyph name="uni055B" format="2">
  <advance width="190"/>
  <unicode hex="055B"/>
  <note>
uni055B
</note>
  <outline>
    <contour>
      <point x="51" y="603" type="line"/>
      <point x="88" y="603" type="line"/>
      <point x="112" y="676"/>
      <point x="131" y="743"/>
      <point x="144" y="804" type="curve"/>
      <point x="140" y="814" type="line"/>
      <point x="93" y="814" type="line"/>
      <point x="89" y="788"/>
      <point x="80" y="737"/>
      <point x="70" y="695" type="curve" smooth="yes"/>
      <point x="51" y="615" type="line"/>
    </contour>
  </outline>
</glyph>
<glyph name="uni055C" format="2">
  <advance width="218"/>
  <unicode hex="055C"/>
  <note>
uni055C
</note>
  <outline>
    <contour>
      <point x="72" y="603" type="curve"/>
      <point x="116" y="603" type="line"/>
      <point x="116" y="615" type="line" smooth="yes"/>
      <point x="116" y="650"/>
      <point x="126" y="669"/>
      <point x="154" y="690" type="curve" smooth="yes"/>
      <point x="200" y="725"/>
      <point x="207" y="740"/>
      <point x="207" y="814" type="curve"/>
      <point x="163" y="814" type="line"/>
      <point x="163" y="799" type="line" smooth="yes"/>
      <point x="163" y="756"/>
      <point x="156" y="742"/>
      <point x="129" y="722" type="curve" smooth="yes"/>
      <point x="82" y="686"/>
      <point x="72" y="668"/>
    </contour>
  </outline>
</glyph>
<glyph name="uni055D" format="2">
  <advance width="190"/>
  <unicode hex="055D"/>
  <note>
uni055D
</note>
  <outline>
    <contour>
      <point x="138" y="603" type="line"/>
      <point x="137" y="614" type="line"/>
      <point x="119" y="695" type="line" smooth="yes"/>
      <point x="110" y="737"/>
      <point x="100" y="788"/>
      <point x="97" y="814" type="curve"/>
      <point x="50" y="814" type="line"/>
      <point x="45" y="804" type="line"/>
      <point x="59" y="743"/>
      <point x="78" y="676"/>
      <point x="102" y="603" type="curve"/>
    </contour>
  </outline>
</glyph>
<glyph name="uni055E" format="2">
  <advance width="319"/>
  <unicode hex="055E"/>
  <note>
uni055E
</note>
  <outline>
    <contour>
      <point x="66" y="649" type="curve"/>
      <point x="118" y="649" type="line"/>
      <point x="118" y="744"/>
      <point x="147" y="788"/>
      <point x="199" y="788" type="curve" smooth="yes"/>
      <point x="226" y="788"/>
      <point x="241" y="772"/>
      <point x="241" y="741" type="curve" smooth="yes"/>
      <point x="241" y="712"/>
      <point x="229" y="699"/>
      <point x="202" y="699" type="curve" smooth="yes"/>
      <point x="189" y="699"/>
      <point x="180" y="702"/>
      <point x="172" y="706" type="curve"/>
      <point x="172" y="676"/>
      <point x="190" y="661"/>
      <point x="223" y="661" type="curve" smooth="yes"/>
      <point x="267" y="661"/>
      <point x="296" y="690"/>
      <point x="296" y="739" type="curve" smooth="yes"/>
      <point x="296" y="791"/>
      <point x="263" y="825"/>
      <point x="203" y="825" type="curve" smooth="yes"/>
      <point x="122" y="825"/>
      <point x="66" y="759"/>
    </contour>
  </outline>
</glyph>
<glyph name="uni055F" format="2">
  <advance width="324"/>
  <unicode hex="055F"/>
  <note>
uni055F
</note>
  <outline>
    <contour>
      <point x="156" y="610" type="curve" smooth="yes"/>
      <point x="288" y="610" type="line"/>
      <point x="288" y="648" type="line"/>
      <point x="164" y="648" type="line" smooth="yes"/>
      <point x="113" y="648"/>
      <point x="96" y="670"/>
      <point x="96" y="704" type="curve" smooth="yes"/>
      <point x="96" y="739"/>
      <point x="115" y="759"/>
      <point x="143" y="759" type="curve" smooth="yes"/>
      <point x="156" y="759"/>
      <point x="170" y="755"/>
      <point x="180" y="749" type="curve"/>
      <point x="180" y="778"/>
      <point x="161" y="799"/>
      <point x="127" y="799" type="curve" smooth="yes"/>
      <point x="80" y="799"/>
      <point x="46" y="762"/>
      <point x="46" y="704" type="curve" smooth="yes"/>
      <point x="46" y="645"/>
      <point x="83" y="610"/>
    </contour>
  </outline>
</glyph>
<glyph name="uni0560" format="2">
  <advance width="704"/>
  <unicode hex="0560"/>
  <note>
uni0561
</note>
  <anchor x="355" y="492" name="top"/>
  <outline>
    <contour>
      <point x="196" y="0" type="line"/>
      <point x="196" y="29" type="line"/>
      <point x="150" y="29"/>
      <point x="145" y="36"/>
      <point x="145" y="104" type="curve" smooth="yes"/>
      <point x="145" y="285" type="line" smooth="yes"/>
      <point x="145" y="383"/>
      <point x="173" y="452"/>
      <point x="245" y="452" type="curve" smooth="yes"/>
      <point x="301" y="452"/>
      <point x="323" y="415"/>
      <point x="323" y="313" type="curve" smooth="yes"/>
      <point x="323" y="0" type="line"/>
      <point x="437" y="0" type="line"/>
      <point x="437" y="29" type="line"/>
      <point x="391" y="29"/>
      <point x="386" y="36"/>
      <point x="386" y="104" type="curve" smooth="yes"/>
      <point x="386" y="299" type="line" smooth="yes"/>
      <point x="386" y="392"/>
      <point x="411" y="452"/>
      <point x="485" y="452" type="curve" smooth="yes"/>
      <point x="543" y="452"/>
      <point x="565" y="407"/>
      <point x="565" y="313" type="curve" smooth="yes"/>
      <point x="565" y="0" type="line"/>
      <point x="679" y="0" type="line"/>
      <point x="679" y="35" type="line"/>
      <point x="632" y="35"/>
      <point x="628" y="40"/>
      <point x="628" y="106" type="curve" smooth="yes"/>
      <point x="628" y="321" type="line" smooth="yes"/>
      <point x="628" y="445"/>
      <point x="585" y="502"/>
      <point x="504" y="502" type="curve" smooth="yes"/>
      <point x="445" y="502"/>
      <point x="400" y="474"/>
      <point x="380" y="413" type="curve"/>
      <point x="378" y="413" type="line"/>
      <point x="363" y="473"/>
      <point x="328" y="502"/>
      <point x="268" y="502" type="curve" smooth="yes"/>
      <point x="205" y="502"/>
      <point x="167" y="472"/>
      <point x="146" y="417" type="curve"/>
      <point x="143" y="417" type="line"/>
      <point x="138" y="492" type="line"/>
      <point x="31" y="492" type="line"/>
      <point x="31" y="458" type="line"/>
      <point x="77" y="458"/>
      <point x="82" y="449"/>
      <point x="82" y="382" type="curve" smooth="yes"/>
      <point x="82" y="0" type="line"/>
    </contour>
  </outline>
</glyph>
<glyph name="uni0561" format="2">
  <advance width="704"/>
  <unicode hex="0561"/>
  <note>
uni0561
</note>
  <anchor x="350" y="492" name="top"/>
  <outline>
    <contour>
      <point x="508" y="492" type="line"/>
      <point x="508" y="463" type="line"/>
      <point x="554" y="463"/>
      <point x="559" y="456"/>
      <point x="559" y="388" type="curve" smooth="yes"/>
      <point x="559" y="207" type="line" smooth="yes"/>
      <point x="559" y="109"/>
      <point x="531" y="40"/>
      <point x="459" y="40" type="curve" smooth="yes"/>
      <point x="403" y="40"/>
      <point x="381" y="77"/>
      <point x="381" y="179" type="curve" smooth="yes"/>
      <point x="381" y="492" type="line"/>
      <point x="267" y="492" type="line"/>
      <point x="267" y="463" type="line"/>
      <point x="313" y="463"/>
      <point x="318" y="456"/>
      <point x="318" y="388" type="curve" smooth="yes"/>
      <point x="318" y="193" type="line" smooth="yes"/>
      <point x="318" y="100"/>
      <point x="293" y="40"/>
      <point x="219" y="40" type="curve" smooth="yes"/>
      <point x="161" y="40"/>
      <point x="139" y="85"/>
      <point x="139" y="179" type="curve" smooth="yes"/>
      <point x="139" y="492" type="line"/>
      <point x="25" y="492" type="line"/>
      <point x="25" y="457" type="line"/>
      <point x="72" y="457"/>
      <point x="76" y="452"/>
      <point x="76" y="386" type="curve" smooth="yes"/>
      <point x="76" y="171" type="line" smooth="yes"/>
      <point x="76" y="47"/>
      <point x="119" y="-10"/>
      <point x="200" y="-10" type="curve" smooth="yes"/>
      <point x="259" y="-10"/>
      <point x="304" y="18"/>
      <point x="324" y="79" type="curve"/>
      <point x="326" y="79" type="line"/>
      <point x="341" y="19"/>
      <point x="376" y="-10"/>
      <point x="436" y="-10" type="curve" smooth="yes"/>
      <point x="499" y="-10"/>
      <point x="537" y="20"/>
      <point x="558" y="75" type="curve"/>
      <point x="561" y="75" type="line"/>
      <point x="566" y="0" type="line"/>
      <point x="673" y="0" type="line"/>
      <point x="673" y="34" type="line"/>
      <point x="627" y="34"/>
      <point x="622" y="43"/>
      <point x="622" y="110" type="curve" smooth="yes"/>
      <point x="622" y="492" type="line"/>
    </contour>
  </outline>
</glyph>
<glyph name="uni0562" format="2">
  <advance width="471"/>
  <unicode hex="0562"/>
  <note>
uni0562
</note>
  <outline>
    <contour>
      <point x="145" y="-126" type="curve" smooth="yes"/>
      <point x="145" y="281" type="line" smooth="yes"/>
      <point x="145" y="401"/>
      <point x="189" y="450"/>
      <point x="250" y="450" type="curve" smooth="yes"/>
      <point x="313" y="450"/>
      <point x="335" y="401"/>
      <point x="335" y="310" type="curve" smooth="yes"/>
      <point x="335" y="216" type="line"/>
      <point x="446" y="216" type="line"/>
      <point x="446" y="251" type="line"/>
      <point x="406" y="251"/>
      <point x="398" y="258"/>
      <point x="398" y="302" type="curve" smooth="yes"/>
      <point x="398" y="324" type="line" smooth="yes"/>
      <point x="398" y="444"/>
      <point x="358" y="501"/>
      <point x="268" y="501" type="curve" smooth="yes"/>
      <point x="202" y="501"/>
      <point x="170" y="465"/>
      <point x="146" y="416" type="curve"/>
      <point x="143" y="416" type="line"/>
      <point x="138" y="492" type="line"/>
      <point x="30" y="492" type="line"/>
      <point x="30" y="457" type="line"/>
      <point x="76" y="457"/>
      <point x="82" y="450"/>
      <point x="82" y="385" type="curve" smooth="yes"/>
      <point x="82" y="-234" type="line"/>
      <point x="197" y="-234" type="line"/>
      <point x="197" y="-199" type="line"/>
      <point x="153" y="-199"/>
      <point x="145" y="-194"/>
    </contour>
    <contour>
      <point x="124" y="0" type="line"/>
      <point x="407" y="0" type="line"/>
      <point x="407" y="43" type="line"/>
      <point x="124" y="43" type="line"/>
    </contour>
  </outline>
</glyph>
<glyph name="uni0564" format="2">
  <advance width="499"/>
  <unicode hex="0564"/>
  <note>
uni0564
</note>
  <outline>
    <contour>
      <point x="398" y="-124" type="curve" smooth="yes"/>
      <point x="398" y="318" type="line" smooth="yes"/>
      <point x="398" y="444"/>
      <point x="358" y="501"/>
      <point x="268" y="501" type="curve" smooth="yes"/>
      <point x="202" y="501"/>
      <point x="170" y="465"/>
      <point x="146" y="416" type="curve"/>
      <point x="143" y="416" type="line"/>
      <point x="138" y="492" type="line"/>
      <point x="30" y="492" type="line"/>
      <point x="30" y="457" type="line"/>
      <point x="76" y="457"/>
      <point x="82" y="450"/>
      <point x="82" y="385" type="curve" smooth="yes"/>
      <point x="82" y="0" type="line"/>
      <point x="197" y="0" type="line"/>
      <point x="197" y="35" type="line"/>
      <point x="153" y="35"/>
      <point x="145" y="40"/>
      <point x="145" y="108" type="curve" smooth="yes"/>
      <point x="145" y="281" type="line" smooth="yes"/>
      <point x="145" y="401"/>
      <point x="189" y="451"/>
      <point x="250" y="451" type="curve" smooth="yes"/>
      <point x="313" y="451"/>
      <point x="335" y="401"/>
      <point x="335" y="310" type="curve" smooth="yes"/>
      <point x="335" y="-234" type="line"/>
      <point x="449" y="-234" type="line"/>
      <point x="449" y="-199" type="line"/>
      <point x="406" y="-199"/>
      <point x="398" y="-192"/>
    </contour>
    <contour>
      <point x="379" y="0" type="line"/>
      <point x="493" y="0" type="line"/>
      <point x="493" y="43" type="line"/>
      <point x="379" y="43" type="line"/>
    </contour>
  </outline>
</glyph>
<glyph name="uni0565" format="2">
  <advance width="475"/>
  <unicode hex="0565"/>
  <note>
uni0565
</note>
  <outline>
    <contour>
      <point x="394" y="320" type="line"/>
      <point x="331" y="320" type="line"/>
      <point x="331" y="210" type="line" smooth="yes"/>
      <point x="331" y="113"/>
      <point x="299" y="40"/>
      <point x="226" y="40" type="curve" smooth="yes"/>
      <point x="165" y="40"/>
      <point x="139" y="87"/>
      <point x="139" y="193" type="curve" smooth="yes"/>
      <point x="139" y="760" type="line"/>
      <point x="25" y="760" type="line"/>
      <point x="25" y="725" type="line"/>
      <point x="69" y="725"/>
      <point x="76" y="719"/>
      <point x="76" y="652" type="curve" smooth="yes"/>
      <point x="76" y="185" type="line" smooth="yes"/>
      <point x="76" y="47"/>
      <point x="122" y="-10"/>
      <point x="208" y="-10" type="curve" smooth="yes"/>
      <point x="268" y="-10"/>
      <point x="305" y="24"/>
      <point x="329" y="75" type="curve"/>
      <point x="333" y="75" type="line"/>
      <point x="341" y="0" type="line"/>
      <point x="444" y="0" type="line"/>
      <point x="444" y="35" type="line"/>
      <point x="400" y="35"/>
      <point x="394" y="40"/>
      <point x="394" y="111" type="curve" smooth="yes"/>
    </contour>
    <contour>
      <point x="114" y="449" type="line"/>
      <point x="430" y="449" type="line"/>
      <point x="430" y="492" type="line"/>
      <point x="114" y="492" type="line"/>
    </contour>
  </outline>
</glyph>
<glyph name="uni0566" format="2">
  <advance width="463"/>
  <unicode hex="0566"/>
  <note>
uni0566
</note>
  <outline>
    <contour>
      <point x="321" y="492" type="line"/>
      <point x="313" y="415" type="line"/>
      <point x="309" y="415" type="line"/>
      <point x="288" y="473"/>
      <point x="253" y="502"/>
      <point x="195" y="502" type="curve" smooth="yes"/>
      <point x="97" y="502"/>
      <point x="44" y="416"/>
      <point x="44" y="244" type="curve" smooth="yes"/>
      <point x="44" y="70"/>
      <point x="98" y="-10"/>
      <point x="188" y="-10" type="curve" smooth="yes"/>
      <point x="252" y="-10"/>
      <point x="285" y="19"/>
      <point x="308" y="79" type="curve"/>
      <point x="311" y="79" type="line"/>
      <point x="308" y="47"/>
      <point x="308" y="13"/>
      <point x="308" y="-38" type="curve" smooth="yes"/>
      <point x="308" y="-234" type="line"/>
      <point x="371" y="-234" type="line"/>
      <point x="371" y="492" type="line"/>
    </contour>
    <contour>
      <point x="207" y="36" type="curve" smooth="yes"/>
      <point x="136" y="36"/>
      <point x="108" y="104"/>
      <point x="108" y="243" type="curve" smooth="yes"/>
      <point x="108" y="382"/>
      <point x="136" y="456"/>
      <point x="212" y="456" type="curve" smooth="yes"/>
      <point x="278" y="456"/>
      <point x="308" y="380"/>
      <point x="308" y="244" type="curve" smooth="yes"/>
      <point x="308" y="73"/>
      <point x="263" y="36"/>
    </contour>
    <contour>
      <point x="353" y="-234" type="line"/>
      <point x="478" y="-234" type="line"/>
      <point x="478" y="-191" type="line"/>
      <point x="353" y="-191" type="line"/>
    </contour>
  </outline>
</glyph>
<glyph name="uni0567" format="2">
  <advance width="374"/>
  <unicode hex="0567"/>
  <note>
uni0567
</note>
  <outline>
    <contour>
      <point x="337" y="449" type="line"/>
      <point x="337" y="492" type="line"/>
      <point x="139" y="492" type="line"/>
      <point x="139" y="760" type="line"/>
      <point x="25" y="760" type="line"/>
      <point x="25" y="725" type="line"/>
      <point x="69" y="725"/>
      <point x="76" y="719"/>
      <point x="76" y="652" type="curve" smooth="yes"/>
      <point x="76" y="12" type="line"/>
      <point x="87" y="0" type="line"/>
      <point x="96" y="0" type="line"/>
      <point x="127" y="21"/>
      <point x="176" y="29"/>
      <point x="211" y="29" type="curve" smooth="yes"/>
      <point x="257" y="29"/>
      <point x="281" y="11"/>
      <point x="281" y="-29" type="curve" smooth="yes"/>
      <point x="281" y="-82"/>
      <point x="236" y="-108"/>
      <point x="153" y="-108" type="curve"/>
      <point x="153" y="-128"/>
      <point x="172" y="-145"/>
      <point x="203" y="-145" type="curve" smooth="yes"/>
      <point x="280" y="-145"/>
      <point x="338" y="-103"/>
      <point x="338" y="-31" type="curve" smooth="yes"/>
      <point x="338" y="42"/>
      <point x="301" y="76"/>
      <point x="230" y="76" type="curve" smooth="yes"/>
      <point x="201" y="76"/>
      <point x="165" y="69"/>
      <point x="139" y="50" type="curve"/>
      <point x="139" y="449" type="line"/>
    </contour>
  </outline>
</glyph>
<glyph name="uni0569" format="2">
  <advance width="493"/>
  <unicode hex="0569"/>
  <note>
uni0569
</note>
  <outline>
    <contour>
      <point x="81" y="-234" type="line"/>
      <point x="198" y="-234" type="line"/>
      <point x="198" y="-200" type="line"/>
      <point x="152" y="-200"/>
      <point x="144" y="-195"/>
      <point x="144" y="-129" type="curve" smooth="yes"/>
      <point x="144" y="244" type="line" smooth="yes"/>
      <point x="144" y="379"/>
      <point x="178" y="456"/>
      <point x="261" y="456" type="curve" smooth="yes"/>
      <point x="341" y="456"/>
      <point x="374" y="388"/>
      <point x="374" y="243" type="curve" smooth="yes"/>
      <point x="374" y="78"/>
      <point x="359" y="33"/>
      <point x="323" y="33" type="curve" smooth="yes"/>
      <point x="293" y="33"/>
      <point x="274" y="61"/>
      <point x="274" y="125" type="curve" smooth="yes"/>
      <point x="274" y="193"/>
      <point x="293" y="225"/>
      <point x="333" y="225" type="curve" smooth="yes"/>
      <point x="374" y="225"/>
      <point x="429" y="213"/>
      <point x="470" y="192" type="curve"/>
      <point x="481" y="230" type="line"/>
      <point x="434" y="256"/>
      <point x="382" y="268"/>
      <point x="330" y="268" type="curve" smooth="yes"/>
      <point x="262" y="268"/>
      <point x="219" y="224"/>
      <point x="219" y="127" type="curve" smooth="yes"/>
      <point x="219" y="36"/>
      <point x="254" y="-10"/>
      <point x="323" y="-10" type="curve" smooth="yes"/>
      <point x="399" y="-10"/>
      <point x="436" y="58"/>
      <point x="436" y="243" type="curve" smooth="yes"/>
      <point x="436" y="415"/>
      <point x="375" y="502"/>
      <point x="274" y="502" type="curve" smooth="yes"/>
      <point x="204" y="502"/>
      <point x="166" y="470"/>
      <point x="143" y="405" type="curve"/>
      <point x="139" y="405" type="line"/>
      <point x="131" y="492" type="line"/>
      <point x="29" y="492" type="line"/>
      <point x="29" y="457" type="line"/>
      <point x="78" y="457"/>
      <point x="81" y="451"/>
      <point x="81" y="386" type="curve" smooth="yes"/>
    </contour>
  </outline>
</glyph>
<glyph name="uni056A" format="2">
  <advance width="482"/>
  <unicode hex="056A"/>
  <note>
uni056A
</note>
  <outline>
    <contour>
      <point x="322" y="492" type="line"/>
      <point x="240" y="492" type="line" smooth="yes"/>
      <point x="121" y="492"/>
      <point x="44" y="423"/>
      <point x="44" y="252" type="curve" smooth="yes"/>
      <point x="44" y="79"/>
      <point x="106" y="-10"/>
      <point x="215" y="-10" type="curve" smooth="yes"/>
      <point x="333" y="-10"/>
      <point x="384" y="76"/>
      <point x="384" y="242" type="curve" smooth="yes"/>
      <point x="384" y="760" type="line"/>
      <point x="271" y="760" type="line"/>
      <point x="271" y="726" type="line"/>
      <point x="313" y="726"/>
      <point x="322" y="720"/>
      <point x="322" y="657" type="curve" smooth="yes"/>
    </contour>
    <contour>
      <point x="242" y="449" type="curve" smooth="yes"/>
      <point x="321" y="449" type="line"/>
      <point x="321" y="241" type="line" smooth="yes"/>
      <point x="321" y="110"/>
      <point x="295" y="35"/>
      <point x="215" y="35" type="curve" smooth="yes"/>
      <point x="140" y="35"/>
      <point x="107" y="108"/>
      <point x="107" y="253" type="curve" smooth="yes"/>
      <point x="107" y="403"/>
      <point x="161" y="449"/>
    </contour>
    <contour>
      <point x="371" y="492" type="line"/>
      <point x="371" y="449" type="line"/>
      <point x="477" y="449" type="line"/>
      <point x="477" y="492" type="line"/>
    </contour>
  </outline>
</glyph>
<glyph name="uni056B" format="2">
  <advance width="474"/>
  <unicode hex="056B"/>
  <note>
uni056B
</note>
  <outline>
    <contour>
      <point x="449" y="35" type="line"/>
      <point x="406" y="35"/>
      <point x="398" y="42"/>
      <point x="398" y="110" type="curve" smooth="yes"/>
      <point x="398" y="318" type="line" smooth="yes"/>
      <point x="398" y="444"/>
      <point x="358" y="501"/>
      <point x="268" y="501" type="curve" smooth="yes"/>
      <point x="202" y="501"/>
      <point x="170" y="461"/>
      <point x="146" y="413" type="curve"/>
      <point x="142" y="413" type="line"/>
      <point x="143" y="439"/>
      <point x="145" y="465"/>
      <point x="145" y="491" type="curve" smooth="yes"/>
      <point x="145" y="760" type="line"/>
      <point x="30" y="760" type="line"/>
      <point x="30" y="725" type="line"/>
      <point x="76" y="725"/>
      <point x="82" y="718"/>
      <point x="82" y="653" type="curve" smooth="yes"/>
      <point x="82" y="-234" type="line"/>
      <point x="197" y="-234" type="line"/>
      <point x="197" y="-199" type="line"/>
      <point x="153" y="-199"/>
      <point x="145" y="-194"/>
      <point x="145" y="-126" type="curve" smooth="yes"/>
      <point x="145" y="282" type="line" smooth="yes"/>
      <point x="145" y="402"/>
      <point x="189" y="451"/>
      <point x="250" y="451" type="curve" smooth="yes"/>
      <point x="313" y="451"/>
      <point x="335" y="401"/>
      <point x="335" y="310" type="curve" smooth="yes"/>
      <point x="335" y="0" type="line"/>
      <point x="449" y="0" type="line"/>
    </contour>
  </outline>
</glyph>
<glyph name="uni056C" format="2">
  <advance width="227"/>
  <unicode hex="056C"/>
  <note>
uni056C
</note>
  <outline>
    <contour>
      <point x="244" y="-123" type="line"/>
      <point x="209" y="-123" type="line"/>
      <point x="209" y="-186"/>
      <point x="204" y="-191"/>
      <point x="166" y="-191" type="curve" smooth="yes"/>
      <point x="144" y="-191" type="line"/>
      <point x="144" y="492" type="line"/>
      <point x="31" y="492" type="line"/>
      <point x="31" y="457" type="line"/>
      <point x="40" y="457" type="line" smooth="yes"/>
      <point x="77" y="457"/>
      <point x="82" y="452"/>
      <point x="82" y="412" type="curve" smooth="yes"/>
      <point x="82" y="-234" type="line"/>
      <point x="244" y="-234" type="line"/>
    </contour>
  </outline>
</glyph>
<glyph name="uni056D" format="2">
  <advance width="734"/>
  <unicode hex="056D"/>
  <note>
uni056D
</note>
  <outline>
    <contour>
      <point x="653" y="111" type="curve" smooth="yes"/>
      <point x="653" y="492" type="line"/>
      <point x="539" y="492" type="line"/>
      <point x="539" y="457" type="line"/>
      <point x="578" y="457"/>
      <point x="590" y="451"/>
      <point x="590" y="374" type="curve" smooth="yes"/>
      <point x="590" y="210" type="line" smooth="yes"/>
      <point x="590" y="113"/>
      <point x="558" y="40"/>
      <point x="486" y="40" type="curve" smooth="yes"/>
      <point x="425" y="40"/>
      <point x="398" y="87"/>
      <point x="398" y="193" type="curve" smooth="yes"/>
      <point x="398" y="318" type="line" smooth="yes"/>
      <point x="398" y="444"/>
      <point x="358" y="501"/>
      <point x="268" y="501" type="curve" smooth="yes"/>
      <point x="202" y="501"/>
      <point x="170" y="456"/>
      <point x="146" y="413" type="curve"/>
      <point x="142" y="413" type="line"/>
      <point x="143" y="434"/>
      <point x="145" y="465"/>
      <point x="145" y="491" type="curve" smooth="yes"/>
      <point x="145" y="760" type="line"/>
      <point x="30" y="760" type="line"/>
      <point x="30" y="725" type="line"/>
      <point x="76" y="725"/>
      <point x="82" y="718"/>
      <point x="82" y="653" type="curve" smooth="yes"/>
      <point x="82" y="-234" type="line"/>
      <point x="197" y="-234" type="line"/>
      <point x="197" y="-199" type="line"/>
      <point x="153" y="-199"/>
      <point x="145" y="-194"/>
      <point x="145" y="-126" type="curve" smooth="yes"/>
      <point x="145" y="282" type="line" smooth="yes"/>
      <point x="145" y="402"/>
      <point x="189" y="451"/>
      <point x="250" y="451" type="curve" smooth="yes"/>
      <point x="313" y="451"/>
      <point x="335" y="401"/>
      <point x="335" y="310" type="curve" smooth="yes"/>
      <point x="335" y="185" type="line" smooth="yes"/>
      <point x="335" y="47"/>
      <point x="381" y="-10"/>
      <point x="467" y="-10" type="curve" smooth="yes"/>
      <point x="527" y="-10"/>
      <point x="564" y="24"/>
      <point x="588" y="75" type="curve"/>
      <point x="592" y="75" type="line"/>
      <point x="600" y="0" type="line"/>
      <point x="704" y="0" type="line"/>
      <point x="704" y="35" type="line"/>
      <point x="659" y="35"/>
      <point x="653" y="40"/>
    </contour>
  </outline>
</glyph>
<glyph name="uni056E" format="2">
  <advance width="432"/>
  <unicode hex="056E"/>
  <note>
uni056E
</note>
  <outline>
    <contour>
      <point x="211" y="-10" type="curve" smooth="yes"/>
      <point x="333" y="-10"/>
      <point x="384" y="76"/>
      <point x="384" y="242" type="curve" smooth="yes"/>
      <point x="384" y="314"/>
      <point x="371" y="377"/>
      <point x="327" y="449" type="curve"/>
      <point x="419" y="449" type="line"/>
      <point x="419" y="492" type="line"/>
      <point x="228" y="492" type="line" smooth="yes"/>
      <point x="126" y="492"/>
      <point x="44" y="412"/>
      <point x="44" y="234" type="curve" smooth="yes"/>
      <point x="44" y="79"/>
      <point x="100" y="-10"/>
    </contour>
    <contour>
      <point x="211" y="35" type="curve" smooth="yes"/>
      <point x="141" y="35"/>
      <point x="108" y="108"/>
      <point x="108" y="234" type="curve" smooth="yes"/>
      <point x="108" y="403"/>
      <point x="168" y="449"/>
      <point x="242" y="449" type="curve" smooth="yes"/>
      <point x="262" y="449" type="line"/>
      <point x="308" y="377"/>
      <point x="322" y="313"/>
      <point x="322" y="241" type="curve" smooth="yes"/>
      <point x="322" y="110"/>
      <point x="296" y="35"/>
    </contour>
    <contour>
      <point x="247" y="480" type="curve"/>
      <point x="311" y="480" type="line"/>
      <point x="286" y="513"/>
      <point x="267" y="540"/>
      <point x="242" y="581" type="curve" smooth="yes"/>
      <point x="204" y="643"/>
      <point x="196" y="665"/>
      <point x="196" y="694" type="curve" smooth="yes"/>
      <point x="196" y="717"/>
      <point x="203" y="737"/>
      <point x="245" y="737" type="curve"/>
      <point x="237" y="759"/>
      <point x="221" y="769"/>
      <point x="200" y="769" type="curve" smooth="yes"/>
      <point x="164" y="769"/>
      <point x="138" y="740"/>
      <point x="138" y="694" type="curve" smooth="yes"/>
      <point x="138" y="668"/>
      <point x="145" y="637"/>
      <point x="183" y="575" type="curve" smooth="yes"/>
      <point x="202" y="544"/>
      <point x="223" y="513"/>
    </contour>
  </outline>
</glyph>
<glyph name="uni056F" format="2">
  <advance width="475"/>
  <unicode hex="056F"/>
  <note>
uni056F
</note>
  <outline>
    <contour>
      <point x="331" y="-234" type="line"/>
      <point x="444" y="-234" type="line"/>
      <point x="444" y="-199" type="line"/>
      <point x="400" y="-199"/>
      <point x="394" y="-194"/>
      <point x="394" y="-123" type="curve" smooth="yes"/>
      <point x="394" y="492" type="line"/>
      <point x="280" y="492" type="line"/>
      <point x="280" y="457" type="line"/>
      <point x="319" y="457"/>
      <point x="331" y="451"/>
      <point x="331" y="374" type="curve" smooth="yes"/>
      <point x="331" y="210" type="line" smooth="yes"/>
      <point x="331" y="113"/>
      <point x="299" y="32"/>
      <point x="226" y="32" type="curve" smooth="yes"/>
      <point x="165" y="32"/>
      <point x="139" y="87"/>
      <point x="139" y="193" type="curve" smooth="yes"/>
      <point x="139" y="760" type="line"/>
      <point x="25" y="760" type="line"/>
      <point x="25" y="725" type="line"/>
      <point x="69" y="725"/>
      <point x="76" y="719"/>
      <point x="76" y="652" type="curve" smooth="yes"/>
      <point x="76" y="185" type="line" smooth="yes"/>
      <point x="76" y="47"/>
      <point x="122" y="-10"/>
      <point x="208" y="-10" type="curve" smooth="yes"/>
      <point x="268" y="-10"/>
      <point x="305" y="24"/>
      <point x="329" y="75" type="curve"/>
      <point x="333" y="75" type="line"/>
      <point x="332" y="53"/>
      <point x="331" y="25"/>
      <point x="331" y="3" type="curve" smooth="yes"/>
    </contour>
  </outline>
</glyph>
<glyph name="uni0570" format="2">
  <advance width="429"/>
  <unicode hex="0570"/>
  <note>
uni0570
</note>
  <outline>
    <contour>
      <point x="102" y="174" type="line"/>
      <point x="104" y="265"/>
      <point x="146" y="316"/>
      <point x="207" y="316" type="curve" smooth="yes"/>
      <point x="270" y="316"/>
      <point x="292" y="261"/>
      <point x="292" y="172" type="curve" smooth="yes"/>
      <point x="292" y="0" type="line"/>
      <point x="406" y="0" type="line"/>
      <point x="406" y="35" type="line"/>
      <point x="363" y="35"/>
      <point x="355" y="42"/>
      <point x="355" y="110" type="curve" smooth="yes"/>
      <point x="355" y="178" type="line" smooth="yes"/>
      <point x="355" y="304"/>
      <point x="315" y="366"/>
      <point x="225" y="366" type="curve" smooth="yes"/>
      <point x="164" y="366"/>
      <point x="128" y="330"/>
      <point x="104" y="281" type="curve"/>
      <point x="101" y="281" type="line"/>
      <point x="116" y="599"/>
      <point x="178" y="723"/>
      <point x="266" y="723" type="curve" smooth="yes"/>
      <point x="315" y="723"/>
      <point x="337" y="694"/>
      <point x="338" y="615" type="curve"/>
      <point x="372" y="615"/>
      <point x="392" y="637"/>
      <point x="392" y="667" type="curve" smooth="yes"/>
      <point x="392" y="725"/>
      <point x="352" y="768"/>
      <point x="275" y="768" type="curve" smooth="yes"/>
      <point x="149" y="768"/>
      <point x="39" y="639"/>
      <point x="39" y="190" type="curve"/>
    </contour>
  </outline>
</glyph>
<glyph name="uni0571" format="2">
  <advance width="440"/>
  <unicode hex="0571"/>
  <note>
uni0571
</note>
  <outline>
    <contour>
      <point x="175" y="-10" type="curve" smooth="yes"/>
      <point x="253" y="-10"/>
      <point x="293" y="37"/>
      <point x="330" y="113" type="curve"/>
      <point x="310" y="134" type="line"/>
      <point x="276" y="69"/>
      <point x="248" y="36"/>
      <point x="192" y="36" type="curve" smooth="yes"/>
      <point x="137" y="36"/>
      <point x="97" y="69"/>
      <point x="97" y="166" type="curve" smooth="yes"/>
      <point x="97" y="266"/>
      <point x="125" y="330"/>
      <point x="243" y="438" type="curve" smooth="yes"/>
      <point x="377" y="560"/>
      <point x="384" y="571"/>
      <point x="384" y="599" type="curve" smooth="yes"/>
      <point x="384" y="636"/>
      <point x="370" y="654"/>
      <point x="239" y="682" type="curve" smooth="yes"/>
      <point x="132" y="705"/>
      <point x="117" y="717"/>
      <point x="117" y="771" type="curve"/>
      <point x="82" y="771"/>
      <point x="62" y="756"/>
      <point x="62" y="729" type="curve" smooth="yes"/>
      <point x="62" y="685"/>
      <point x="80" y="660"/>
      <point x="214" y="635" type="curve" smooth="yes"/>
      <point x="318" y="616"/>
      <point x="327" y="604"/>
      <point x="327" y="589" type="curve" smooth="yes"/>
      <point x="327" y="578"/>
      <point x="319" y="564"/>
      <point x="213" y="468" type="curve" smooth="yes"/>
      <point x="60" y="330"/>
      <point x="34" y="267"/>
      <point x="34" y="160" type="curve" smooth="yes"/>
      <point x="34" y="46"/>
      <point x="88" y="-10"/>
    </contour>
    <contour>
      <point x="280" y="493" type="line"/>
      <point x="224" y="462" type="line"/>
      <point x="314" y="83" type="line"/>
      <point x="316" y="83" type="line"/>
      <point x="337" y="0" type="line"/>
      <point x="429" y="0" type="line"/>
      <point x="429" y="35" type="line"/>
      <point x="395" y="35"/>
      <point x="388" y="37"/>
      <point x="376" y="87" type="curve" smooth="yes"/>
    </contour>
  </outline>
</glyph>
<glyph name="uni0572" format="2">
  <advance width="490"/>
  <unicode hex="0572"/>
  <note>
uni0572
</note>
  <outline>
    <contour>
      <point x="268" y="501" type="curve" smooth="yes"/>
      <point x="202" y="501"/>
      <point x="170" y="465"/>
      <point x="146" y="416" type="curve"/>
      <point x="143" y="416" type="line"/>
      <point x="138" y="492" type="line"/>
      <point x="30" y="492" type="line"/>
      <point x="30" y="457" type="line"/>
      <point x="76" y="457"/>
      <point x="82" y="450"/>
      <point x="82" y="385" type="curve" smooth="yes"/>
      <point x="82" y="0" type="line"/>
      <point x="197" y="0" type="line"/>
      <point x="197" y="29" type="line"/>
      <point x="153" y="29"/>
      <point x="145" y="34"/>
      <point x="145" y="102" type="curve" smooth="yes"/>
      <point x="145" y="281" type="line" smooth="yes"/>
      <point x="145" y="401"/>
      <point x="189" y="451"/>
      <point x="250" y="451" type="curve" smooth="yes"/>
      <point x="313" y="451"/>
      <point x="335" y="401"/>
      <point x="335" y="310" type="curve" smooth="yes"/>
      <point x="335" y="-234" type="line"/>
      <point x="398" y="-234" type="line"/>
      <point x="398" y="318" type="line" smooth="yes"/>
      <point x="398" y="446"/>
      <point x="358" y="501"/>
    </contour>
    <contour>
      <point x="361" y="-234" type="line"/>
      <point x="505" y="-234" type="line"/>
      <point x="505" y="-189" type="line"/>
      <point x="361" y="-189" type="line"/>
    </contour>
  </outline>
</glyph>
<glyph name="uni0573" format="2">
  <advance width="449"/>
  <unicode hex="0573"/>
  <note>
uni0573
</note>
  <outline>
    <contour>
      <point x="185" y="-10" type="curve" smooth="yes"/>
      <point x="246" y="-10"/>
      <point x="286" y="24"/>
      <point x="310" y="75" type="curve"/>
      <point x="314" y="75" type="line"/>
      <point x="322" y="0" type="line"/>
      <point x="426" y="0" type="line"/>
      <point x="426" y="35" type="line"/>
      <point x="381" y="35"/>
      <point x="375" y="40"/>
      <point x="375" y="111" type="curve" smooth="yes"/>
      <point x="375" y="234" type="line" smooth="yes"/>
      <point x="375" y="432"/>
      <point x="280" y="502"/>
      <point x="17" y="502" type="curve"/>
      <point x="17" y="459" type="line"/>
      <point x="245" y="459"/>
      <point x="312" y="397"/>
      <point x="312" y="227" type="curve" smooth="yes"/>
      <point x="312" y="98"/>
      <point x="276" y="32"/>
      <point x="204" y="32" type="curve" smooth="yes"/>
      <point x="143" y="32"/>
      <point x="113" y="82"/>
      <point x="113" y="193" type="curve" smooth="yes"/>
      <point x="113" y="543"/>
      <point x="221" y="723"/>
      <point x="306" y="723" type="curve" smooth="yes"/>
      <point x="352" y="723"/>
      <point x="374" y="698"/>
      <point x="375" y="619" type="curve"/>
      <point x="409" y="619"/>
      <point x="429" y="637"/>
      <point x="429" y="667" type="curve" smooth="yes"/>
      <point x="429" y="725"/>
      <point x="389" y="768"/>
      <point x="312" y="768" type="curve" smooth="yes"/>
      <point x="184" y="768"/>
      <point x="50" y="563"/>
      <point x="50" y="193" type="curve" smooth="yes"/>
      <point x="50" y="46"/>
      <point x="99" y="-10"/>
    </contour>
  </outline>
</glyph>
<glyph name="uni0574" format="2">
  <advance width="475"/>
  <unicode hex="0574"/>
  <note>
uni0574
</note>
  <outline>
    <contour>
      <point x="394" y="111" type="curve" smooth="yes"/>
      <point x="394" y="449" type="line" smooth="yes"/>
      <point x="394" y="494"/>
      <point x="383" y="532"/>
      <point x="358" y="567" type="curve" smooth="yes"/>
      <point x="333" y="601"/>
      <point x="324" y="635"/>
      <point x="324" y="666" type="curve" smooth="yes"/>
      <point x="324" y="697"/>
      <point x="334" y="721"/>
      <point x="365" y="721" type="curve" smooth="yes"/>
      <point x="403" y="721"/>
      <point x="413" y="695"/>
      <point x="413" y="627" type="curve"/>
      <point x="446" y="627"/>
      <point x="467" y="644"/>
      <point x="467" y="677" type="curve" smooth="yes"/>
      <point x="467" y="725"/>
      <point x="438" y="764"/>
      <point x="366" y="764" type="curve" smooth="yes"/>
      <point x="308" y="764"/>
      <point x="262" y="735"/>
      <point x="262" y="660" type="curve" smooth="yes"/>
      <point x="262" y="626"/>
      <point x="273" y="585"/>
      <point x="298" y="550" type="curve" smooth="yes"/>
      <point x="321" y="518"/>
      <point x="331" y="481"/>
      <point x="331" y="447" type="curve" smooth="yes"/>
      <point x="331" y="210" type="line" smooth="yes"/>
      <point x="331" y="113"/>
      <point x="299" y="40"/>
      <point x="226" y="40" type="curve" smooth="yes"/>
      <point x="165" y="40"/>
      <point x="139" y="87"/>
      <point x="139" y="193" type="curve" smooth="yes"/>
      <point x="139" y="492" type="line"/>
      <point x="25" y="492" type="line"/>
      <point x="25" y="457" type="line"/>
      <point x="69" y="457"/>
      <point x="76" y="451"/>
      <point x="76" y="384" type="curve" smooth="yes"/>
      <point x="76" y="185" type="line" smooth="yes"/>
      <point x="76" y="47"/>
      <point x="122" y="-10"/>
      <point x="208" y="-10" type="curve" smooth="yes"/>
      <point x="268" y="-10"/>
      <point x="305" y="24"/>
      <point x="329" y="75" type="curve"/>
      <point x="333" y="75" type="line"/>
      <point x="341" y="0" type="line"/>
      <point x="444" y="0" type="line"/>
      <point x="444" y="35" type="line"/>
      <point x="400" y="35"/>
      <point x="394" y="40"/>
    </contour>
  </outline>
</glyph>
<glyph name="uni0575" format="2">
  <advance width="216"/>
  <unicode hex="0575"/>
  <note>
uni0575
</note>
  <outline>
    <contour>
      <point x="76" y="129" type="line" smooth="yes"/>
      <point x="76" y="14"/>
      <point x="109" y="-28"/>
      <point x="109" y="-120" type="curve" smooth="yes"/>
      <point x="109" y="-172"/>
      <point x="84" y="-193"/>
      <point x="38" y="-193" type="curve" smooth="yes"/>
      <point x="32" y="-193" type="line"/>
      <point x="32" y="-234" type="line"/>
      <point x="43" y="-234" type="line" smooth="yes"/>
      <point x="131" y="-234"/>
      <point x="171" y="-195"/>
      <point x="171" y="-117" type="curve" smooth="yes"/>
      <point x="171" y="-19"/>
      <point x="139" y="21"/>
      <point x="139" y="128" type="curve" smooth="yes"/>
      <point x="139" y="492" type="line"/>
      <point x="24" y="492" type="line"/>
      <point x="24" y="457" type="line"/>
      <point x="33" y="457" type="line" smooth="yes"/>
      <point x="70" y="457"/>
      <point x="76" y="446"/>
      <point x="76" y="384" type="curve" smooth="yes"/>
    </contour>
  </outline>
</glyph>
<glyph name="uni0576" format="2">
  <advance width="458"/>
  <unicode hex="0576"/>
  <note>
uni0576
</note>
  <outline>
    <contour>
      <point x="182" y="-10" type="curve" smooth="yes"/>
      <point x="244" y="-10"/>
      <point x="287" y="24"/>
      <point x="311" y="75" type="curve"/>
      <point x="315" y="75" type="line"/>
      <point x="323" y="0" type="line"/>
      <point x="427" y="0" type="line"/>
      <point x="427" y="35" type="line"/>
      <point x="382" y="35"/>
      <point x="376" y="40"/>
      <point x="376" y="111" type="curve" smooth="yes"/>
      <point x="376" y="492" type="line"/>
      <point x="264" y="492" type="line"/>
      <point x="264" y="463" type="line"/>
      <point x="303" y="463"/>
      <point x="313" y="457"/>
      <point x="313" y="380" type="curve" smooth="yes"/>
      <point x="313" y="210" type="line" smooth="yes"/>
      <point x="313" y="112"/>
      <point x="275" y="40"/>
      <point x="200" y="40" type="curve" smooth="yes"/>
      <point x="133" y="40"/>
      <point x="105" y="85"/>
      <point x="105" y="193" type="curve" smooth="yes"/>
      <point x="105" y="306"/>
      <point x="134" y="440"/>
      <point x="186" y="555" type="curve"/>
      <point x="144" y="567" type="line"/>
      <point x="81" y="448"/>
      <point x="42" y="301"/>
      <point x="42" y="185" type="curve" smooth="yes"/>
      <point x="42" y="47"/>
      <point x="90" y="-10"/>
    </contour>
    <contour>
      <point x="186" y="570" type="line"/>
      <point x="132" y="581"/>
      <point x="110" y="606"/>
      <point x="110" y="656" type="curve" smooth="yes"/>
      <point x="110" y="706"/>
      <point x="128" y="730"/>
      <point x="210" y="730" type="curve"/>
      <point x="208" y="754"/>
      <point x="193" y="772"/>
      <point x="156" y="772" type="curve" smooth="yes"/>
      <point x="94" y="772"/>
      <point x="53" y="727"/>
      <point x="53" y="661" type="curve" smooth="yes"/>
      <point x="53" y="597"/>
      <point x="88" y="554"/>
      <point x="141" y="540" type="curve"/>
      <point x="186" y="555" type="line"/>
    </contour>
  </outline>
</glyph>
<glyph name="uni0577" format="2">
  <advance width="376"/>
  <unicode hex="0577"/>
  <note>
uni0577
</note>
  <outline>
    <contour>
      <point x="166" y="502" type="curve" smooth="yes"/>
      <point x="63" y="502"/>
      <point x="18" y="432"/>
      <point x="18" y="379" type="curve" smooth="yes"/>
      <point x="18" y="343"/>
      <point x="35" y="329"/>
      <point x="69" y="329" type="curve"/>
      <point x="69" y="414"/>
      <point x="97" y="457"/>
      <point x="165" y="457" type="curve" smooth="yes"/>
      <point x="234" y="457"/>
      <point x="262" y="409"/>
      <point x="262" y="330" type="curve" smooth="yes"/>
      <point x="262" y="250"/>
      <point x="243" y="167"/>
      <point x="133" y="10" type="curve" smooth="yes"/>
      <point x="54" y="-102"/>
      <point x="31" y="-154"/>
      <point x="31" y="-181" type="curve" smooth="yes"/>
      <point x="31" y="-225"/>
      <point x="60" y="-234"/>
      <point x="93" y="-234" type="curve" smooth="yes"/>
      <point x="331" y="-234" type="line"/>
      <point x="331" y="-188" type="line"/>
      <point x="121" y="-188" type="line" smooth="yes"/>
      <point x="100" y="-188"/>
      <point x="93" y="-178"/>
      <point x="93" y="-165" type="curve" smooth="yes"/>
      <point x="94" y="-137"/>
      <point x="109" y="-116"/>
      <point x="187" y="-6" type="curve" smooth="yes"/>
      <point x="296" y="148"/>
      <point x="325" y="243"/>
      <point x="325" y="330" type="curve" smooth="yes"/>
      <point x="325" y="434"/>
      <point x="272" y="502"/>
    </contour>
  </outline>
</glyph>
<glyph name="uni0579" format="2">
  <advance width="325"/>
  <unicode hex="0579"/>
  <note>
uni0579
</note>
  <outline>
    <contour>
      <point x="263" y="282" type="line"/>
      <point x="195" y="292" type="line"/>
      <point x="41" y="-49" type="line" smooth="yes"/>
      <point x="17" y="-102"/>
      <point x="0" y="-154"/>
      <point x="0" y="-181" type="curve" smooth="yes"/>
      <point x="0" y="-223"/>
      <point x="30" y="-234"/>
      <point x="63" y="-234" type="curve" smooth="yes"/>
      <point x="301" y="-234" type="line"/>
      <point x="301" y="-188" type="line"/>
      <point x="97" y="-188" type="line" smooth="yes"/>
      <point x="75" y="-188"/>
      <point x="67" y="-178"/>
      <point x="67" y="-165" type="curve" smooth="yes"/>
      <point x="67" y="-149"/>
      <point x="79" y="-126"/>
      <point x="102" y="-74" type="curve" smooth="yes"/>
    </contour>
    <contour>
      <point x="115" y="492" type="curve"/>
      <point x="75" y="492" type="line"/>
      <point x="55" y="467"/>
      <point x="44" y="430"/>
      <point x="44" y="406" type="curve" smooth="yes"/>
      <point x="44" y="369"/>
      <point x="58" y="339"/>
      <point x="88" y="321" type="curve" smooth="yes"/>
      <point x="210" y="248" type="line"/>
      <point x="263" y="282" type="line"/>
      <point x="126" y="365" type="line" smooth="yes"/>
      <point x="101" y="380"/>
      <point x="95" y="398"/>
      <point x="95" y="422" type="curve" smooth="yes"/>
      <point x="95" y="442"/>
      <point x="100" y="464"/>
    </contour>
  </outline>
</glyph>
<glyph name="uni057A" format="2">
  <advance width="704"/>
  <unicode hex="057A"/>
  <note>
uni057A
</note>
  <outline>
    <contour>
      <point x="508" y="492" type="line"/>
      <point x="508" y="457" type="line"/>
      <point x="554" y="457"/>
      <point x="559" y="450"/>
      <point x="559" y="382" type="curve" smooth="yes"/>
      <point x="559" y="207" type="line" smooth="yes"/>
      <point x="559" y="109"/>
      <point x="531" y="39"/>
      <point x="459" y="39" type="curve" smooth="yes"/>
      <point x="403" y="39"/>
      <point x="381" y="77"/>
      <point x="381" y="179" type="curve" smooth="yes"/>
      <point x="381" y="492" type="line"/>
      <point x="267" y="492" type="line"/>
      <point x="267" y="457" type="line"/>
      <point x="313" y="457"/>
      <point x="318" y="450"/>
      <point x="318" y="382" type="curve" smooth="yes"/>
      <point x="318" y="193" type="line" smooth="yes"/>
      <point x="318" y="100"/>
      <point x="293" y="39"/>
      <point x="219" y="39" type="curve" smooth="yes"/>
      <point x="161" y="39"/>
      <point x="139" y="85"/>
      <point x="139" y="179" type="curve" smooth="yes"/>
      <point x="139" y="492" type="line"/>
      <point x="25" y="492" type="line"/>
      <point x="25" y="457" type="line"/>
      <point x="72" y="457"/>
      <point x="76" y="452"/>
      <point x="76" y="386" type="curve" smooth="yes"/>
      <point x="76" y="171" type="line" smooth="yes"/>
      <point x="76" y="47"/>
      <point x="119" y="-10"/>
      <point x="200" y="-10" type="curve" smooth="yes"/>
      <point x="259" y="-10"/>
      <point x="304" y="18"/>
      <point x="324" y="79" type="curve"/>
      <point x="326" y="79" type="line"/>
      <point x="341" y="19"/>
      <point x="376" y="-10"/>
      <point x="436" y="-10" type="curve" smooth="yes"/>
      <point x="499" y="-10"/>
      <point x="537" y="20"/>
      <point x="558" y="75" type="curve"/>
      <point x="561" y="75" type="line"/>
      <point x="560" y="49"/>
      <point x="559" y="23"/>
      <point x="559" y="-3" type="curve" smooth="yes"/>
      <point x="559" y="-234" type="line"/>
      <point x="673" y="-234" type="line"/>
      <point x="673" y="-200" type="line"/>
      <point x="627" y="-200"/>
      <point x="622" y="-191"/>
      <point x="622" y="-124" type="curve" smooth="yes"/>
      <point x="622" y="492" type="line"/>
    </contour>
  </outline>
</glyph>
<glyph name="uni057B" format="2">
  <advance width="412"/>
  <unicode hex="057B"/>
  <note>
uni057B
</note>
  <outline>
    <contour>
      <point x="123" y="-234" type="curve" smooth="yes"/>
      <point x="359" y="-234" type="line"/>
      <point x="359" y="-189" type="line"/>
      <point x="152" y="-189" type="line" smooth="yes"/>
      <point x="131" y="-189"/>
      <point x="124" y="-179"/>
      <point x="124" y="-166" type="curve" smooth="yes"/>
      <point x="124" y="-140"/>
      <point x="140" y="-117"/>
      <point x="218" y="-6" type="curve" smooth="yes"/>
      <point x="326" y="148"/>
      <point x="367" y="228"/>
      <point x="367" y="334" type="curve" smooth="yes"/>
      <point x="367" y="434"/>
      <point x="312" y="502"/>
      <point x="207" y="502" type="curve" smooth="yes"/>
      <point x="102" y="502"/>
      <point x="47" y="431"/>
      <point x="47" y="339" type="curve" smooth="yes"/>
      <point x="47" y="263"/>
      <point x="74" y="220"/>
      <point x="103" y="180" type="curve" smooth="yes"/>
      <point x="147" y="119"/>
      <point x="160" y="82"/>
      <point x="160" y="34" type="curve" smooth="yes"/>
      <point x="160" y="13"/>
      <point x="153" y="-2"/>
      <point x="130" y="-35" type="curve"/>
      <point x="168" y="-35" type="line"/>
      <point x="196" y="-1"/>
      <point x="206" y="23"/>
      <point x="206" y="50" type="curve" smooth="yes"/>
      <point x="206" y="102"/>
      <point x="191" y="140"/>
      <point x="150" y="205" type="curve" smooth="yes"/>
      <point x="129" y="238"/>
      <point x="110" y="276"/>
      <point x="110" y="337" type="curve" smooth="yes"/>
      <point x="110" y="406"/>
      <point x="138" y="457"/>
      <point x="207" y="457" type="curve" smooth="yes"/>
      <point x="276" y="457"/>
      <point x="303" y="409"/>
      <point x="303" y="336" type="curve" smooth="yes"/>
      <point x="303" y="236"/>
      <point x="271" y="168"/>
      <point x="161" y="10" type="curve" smooth="yes"/>
      <point x="83" y="-103"/>
      <point x="61" y="-154"/>
      <point x="61" y="-181" type="curve" smooth="yes"/>
      <point x="61" y="-225"/>
      <point x="91" y="-234"/>
    </contour>
  </outline>
</glyph>
<glyph name="uni057C" format="2">
  <advance width="476"/>
  <unicode hex="057C"/>
  <note>
uni057C
</note>
  <outline>
    <contour>
      <point x="306" y="0" type="line"/>
      <point x="470" y="0" type="line"/>
      <point x="470" y="43" type="line"/>
      <point x="306" y="43" type="line"/>
    </contour>
    <contour>
      <point x="267" y="501" type="curve" smooth="yes"/>
      <point x="205" y="501"/>
      <point x="170" y="465"/>
      <point x="146" y="416" type="curve"/>
      <point x="143" y="416" type="line"/>
      <point x="138" y="492" type="line"/>
      <point x="30" y="492" type="line"/>
      <point x="30" y="457" type="line"/>
      <point x="76" y="457"/>
      <point x="82" y="450"/>
      <point x="82" y="385" type="curve" smooth="yes"/>
      <point x="82" y="0" type="line"/>
      <point x="145" y="0" type="line"/>
      <point x="145" y="281" type="line" smooth="yes"/>
      <point x="145" y="401"/>
      <point x="188" y="451"/>
      <point x="249" y="451" type="curve" smooth="yes"/>
      <point x="314" y="451"/>
      <point x="342" y="406"/>
      <point x="342" y="297" type="curve" smooth="yes"/>
      <point x="342" y="210"/>
      <point x="320" y="102"/>
      <point x="276" y="0" type="curve"/>
      <point x="323" y="0" type="line"/>
      <point x="376" y="105"/>
      <point x="405" y="212"/>
      <point x="405" y="305" type="curve" smooth="yes"/>
      <point x="405" y="444"/>
      <point x="357" y="501"/>
    </contour>
  </outline>
</glyph>
<glyph name="uni057D" format="2">
  <advance width="475"/>
  <unicode hex="057D"/>
  <note>
uni057D
</note>
  <outline>
    <contour>
      <point x="208" y="-10" type="curve" smooth="yes"/>
      <point x="268" y="-10"/>
      <point x="305" y="24"/>
      <point x="329" y="75" type="curve"/>
      <point x="333" y="75" type="line"/>
      <point x="341" y="0" type="line"/>
      <point x="444" y="0" type="line"/>
      <point x="444" y="35" type="line"/>
      <point x="400" y="35"/>
      <point x="394" y="40"/>
      <point x="394" y="111" type="curve" smooth="yes"/>
      <point x="394" y="492" type="line"/>
      <point x="280" y="492" type="line"/>
      <point x="280" y="457" type="line"/>
      <point x="319" y="457"/>
      <point x="331" y="451"/>
      <point x="331" y="374" type="curve" smooth="yes"/>
      <point x="331" y="210" type="line" smooth="yes"/>
      <point x="331" y="113"/>
      <point x="299" y="40"/>
      <point x="226" y="40" type="curve" smooth="yes"/>
      <point x="165" y="40"/>
      <point x="139" y="95"/>
      <point x="139" y="193" type="curve" smooth="yes"/>
      <point x="139" y="492" type="line"/>
      <point x="25" y="492" type="line"/>
      <point x="25" y="457" type="line"/>
      <point x="69" y="457"/>
      <point x="76" y="451"/>
      <point x="76" y="384" type="curve" smooth="yes"/>
      <point x="76" y="185" type="line" smooth="yes"/>
      <point x="76" y="47"/>
      <point x="122" y="-10"/>
    </contour>
  </outline>
</glyph>
<glyph name="uni057F" format="2">
  <advance width="723"/>
  <unicode hex="057F"/>
  <note>
uni057F
</note>
  <outline>
    <contour>
      <point x="647" y="110" type="curve" smooth="yes"/>
      <point x="647" y="318" type="line" smooth="yes"/>
      <point x="647" y="444"/>
      <point x="607" y="501"/>
      <point x="516" y="501" type="curve" smooth="yes"/>
      <point x="450" y="501"/>
      <point x="418" y="465"/>
      <point x="395" y="416" type="curve"/>
      <point x="392" y="416" type="line"/>
      <point x="387" y="492" type="line"/>
      <point x="279" y="492" type="line"/>
      <point x="279" y="457" type="line"/>
      <point x="324" y="457"/>
      <point x="331" y="450"/>
      <point x="331" y="385" type="curve" smooth="yes"/>
      <point x="331" y="210" type="line" smooth="yes"/>
      <point x="331" y="113"/>
      <point x="299" y="40"/>
      <point x="226" y="40" type="curve" smooth="yes"/>
      <point x="165" y="40"/>
      <point x="139" y="95"/>
      <point x="139" y="193" type="curve" smooth="yes"/>
      <point x="139" y="492" type="line"/>
      <point x="25" y="492" type="line"/>
      <point x="25" y="457" type="line"/>
      <point x="69" y="457"/>
      <point x="76" y="451"/>
      <point x="76" y="384" type="curve" smooth="yes"/>
      <point x="76" y="185" type="line" smooth="yes"/>
      <point x="76" y="47"/>
      <point x="122" y="-10"/>
      <point x="208" y="-10" type="curve" smooth="yes"/>
      <point x="268" y="-10"/>
      <point x="305" y="24"/>
      <point x="329" y="75" type="curve"/>
      <point x="333" y="75" type="line"/>
      <point x="341" y="0" type="line"/>
      <point x="444" y="0" type="line"/>
      <point x="444" y="35" type="line"/>
      <point x="400" y="35"/>
      <point x="394" y="40"/>
      <point x="394" y="111" type="curve" smooth="yes"/>
      <point x="394" y="281" type="line" smooth="yes"/>
      <point x="394" y="401"/>
      <point x="438" y="451"/>
      <point x="499" y="451" type="curve" smooth="yes"/>
      <point x="562" y="451"/>
      <point x="584" y="393"/>
      <point x="584" y="310" type="curve" smooth="yes"/>
      <point x="584" y="0" type="line"/>
      <point x="698" y="0" type="line"/>
      <point x="698" y="35" type="line"/>
      <point x="655" y="35"/>
      <point x="647" y="42"/>
    </contour>
  </outline>
</glyph>
<glyph name="uni0581" format="2">
  <advance width="441"/>
  <unicode hex="0581"/>
  <note>
uni0581
</note>
  <outline>
    <contour>
      <point x="199" y="-240" type="curve" smooth="yes"/>
      <point x="309" y="-240"/>
      <point x="371" y="-186"/>
      <point x="371" y="-15" type="curve" smooth="yes"/>
      <point x="371" y="492" type="line"/>
      <point x="321" y="492" type="line"/>
      <point x="313" y="415" type="line"/>
      <point x="309" y="415" type="line"/>
      <point x="288" y="475"/>
      <point x="253" y="502"/>
      <point x="195" y="502" type="curve" smooth="yes"/>
      <point x="97" y="502"/>
      <point x="44" y="416"/>
      <point x="44" y="244" type="curve" smooth="yes"/>
      <point x="44" y="70"/>
      <point x="98" y="-10"/>
      <point x="188" y="-10" type="curve" smooth="yes"/>
      <point x="252" y="-10"/>
      <point x="285" y="18"/>
      <point x="308" y="79" type="curve"/>
      <point x="311" y="79" type="line"/>
      <point x="308" y="57"/>
      <point x="308" y="47"/>
      <point x="308" y="2" type="curve" smooth="yes"/>
      <point x="308" y="-23" type="line" smooth="yes"/>
      <point x="308" y="-169"/>
      <point x="270" y="-197"/>
      <point x="198" y="-197" type="curve" smooth="yes"/>
      <point x="131" y="-197"/>
      <point x="100" y="-162"/>
      <point x="100" y="-94" type="curve"/>
      <point x="74" y="-94"/>
      <point x="60" y="-115"/>
      <point x="60" y="-141" type="curve" smooth="yes"/>
      <point x="60" y="-198"/>
      <point x="111" y="-240"/>
    </contour>
    <contour>
      <point x="207" y="36" type="curve" smooth="yes"/>
      <point x="136" y="36"/>
      <point x="108" y="104"/>
      <point x="108" y="243" type="curve" smooth="yes"/>
      <point x="108" y="382"/>
      <point x="136" y="456"/>
      <point x="212" y="456" type="curve" smooth="yes"/>
      <point x="278" y="456"/>
      <point x="308" y="380"/>
      <point x="308" y="244" type="curve" smooth="yes"/>
      <point x="308" y="73"/>
      <point x="263" y="36"/>
    </contour>
  </outline>
</glyph>
<glyph name="uni0582" format="2">
  <advance width="258"/>
  <unicode hex="0582"/>
  <note>
uni0582
</note>
  <outline>
    <contour>
      <point x="247" y="111" type="line"/>
      <point x="213" y="111" type="line"/>
      <point x="213" y="48"/>
      <point x="208" y="43"/>
      <point x="171" y="43" type="curve" smooth="yes"/>
      <point x="144" y="43" type="line"/>
      <point x="144" y="492" type="line"/>
      <point x="31" y="492" type="line"/>
      <point x="31" y="457" type="line"/>
      <point x="40" y="457" type="line" smooth="yes"/>
      <point x="77" y="457"/>
      <point x="82" y="452"/>
      <point x="82" y="412" type="curve" smooth="yes"/>
      <point x="82" y="0" type="line"/>
      <point x="247" y="0" type="line"/>
    </contour>
  </outline>
</glyph>
<glyph name="uni0583" format="2">
  <advance width="723"/>
  <unicode hex="0583"/>
  <note>
uni0583
</note>
  <outline>
    <contour>
      <point x="647" y="110" type="curve" smooth="yes"/>
      <point x="647" y="318" type="line" smooth="yes"/>
      <point x="647" y="444"/>
      <point x="607" y="501"/>
      <point x="516" y="501" type="curve" smooth="yes"/>
      <point x="450" y="501"/>
      <point x="418" y="466"/>
      <point x="395" y="418" type="curve"/>
      <point x="391" y="418" type="line"/>
      <point x="392" y="444"/>
      <point x="394" y="470"/>
      <point x="394" y="496" type="curve" smooth="yes"/>
      <point x="394" y="760" type="line"/>
      <point x="279" y="760" type="line"/>
      <point x="279" y="725" type="line"/>
      <point x="324" y="725"/>
      <point x="331" y="718"/>
      <point x="331" y="653" type="curve" smooth="yes"/>
      <point x="331" y="210" type="line" smooth="yes"/>
      <point x="331" y="113"/>
      <point x="299" y="40"/>
      <point x="226" y="40" type="curve" smooth="yes"/>
      <point x="165" y="40"/>
      <point x="139" y="95"/>
      <point x="139" y="193" type="curve" smooth="yes"/>
      <point x="139" y="492" type="line"/>
      <point x="25" y="492" type="line"/>
      <point x="25" y="457" type="line"/>
      <point x="69" y="457"/>
      <point x="76" y="451"/>
      <point x="76" y="384" type="curve" smooth="yes"/>
      <point x="76" y="185" type="line" smooth="yes"/>
      <point x="76" y="47"/>
      <point x="122" y="-10"/>
      <point x="208" y="-10" type="curve" smooth="yes"/>
      <point x="268" y="-10"/>
      <point x="305" y="24"/>
      <point x="329" y="75" type="curve"/>
      <point x="333" y="75" type="line"/>
      <point x="332" y="50"/>
      <point x="331" y="25"/>
      <point x="331" y="0" type="curve" smooth="yes"/>
      <point x="331" y="-234" type="line"/>
      <point x="445" y="-234" type="line"/>
      <point x="445" y="-199" type="line"/>
      <point x="402" y="-199"/>
      <point x="394" y="-194"/>
      <point x="394" y="-126" type="curve" smooth="yes"/>
      <point x="394" y="282" type="line" smooth="yes"/>
      <point x="394" y="402"/>
      <point x="438" y="451"/>
      <point x="499" y="451" type="curve" smooth="yes"/>
      <point x="562" y="451"/>
      <point x="584" y="393"/>
      <point x="584" y="310" type="curve" smooth="yes"/>
      <point x="584" y="0" type="line"/>
      <point x="698" y="0" type="line"/>
      <point x="698" y="35" type="line"/>
      <point x="655" y="35"/>
      <point x="647" y="42"/>
    </contour>
  </outline>
</glyph>
<glyph name="uni0584" format="2">
  <advance width="452"/>
  <unicode hex="0584"/>
  <note>
uni0584
</note>
  <outline>
    <contour>
      <point x="257" y="502" type="curve" smooth="yes"/>
      <point x="199" y="502"/>
      <point x="163" y="472"/>
      <point x="143" y="415" type="curve"/>
      <point x="139" y="415" type="line"/>
      <point x="131" y="492" type="line"/>
      <point x="29" y="492" type="line"/>
      <point x="29" y="457" type="line"/>
      <point x="78" y="457"/>
      <point x="81" y="451"/>
      <point x="81" y="386" type="curve" smooth="yes"/>
      <point x="81" y="-234" type="line"/>
      <point x="198" y="-234" type="line"/>
      <point x="198" y="-200" type="line"/>
      <point x="152" y="-200"/>
      <point x="144" y="-195"/>
      <point x="144" y="-129" type="curve" smooth="yes"/>
      <point x="144" y="-42" type="line" smooth="yes"/>
      <point x="144" y="9"/>
      <point x="144" y="43"/>
      <point x="141" y="75" type="curve"/>
      <point x="144" y="75" type="line"/>
      <point x="167" y="17"/>
      <point x="200" y="-10"/>
      <point x="264" y="-10" type="curve" smooth="yes"/>
      <point x="354" y="-10"/>
      <point x="408" y="70"/>
      <point x="408" y="244" type="curve" smooth="yes"/>
      <point x="408" y="416"/>
      <point x="355" y="502"/>
    </contour>
    <contour>
      <point x="246" y="36" type="curve" smooth="yes"/>
      <point x="189" y="36"/>
      <point x="144" y="73"/>
      <point x="144" y="244" type="curve" smooth="yes"/>
      <point x="144" y="380"/>
      <point x="174" y="456"/>
      <point x="240" y="456" type="curve" smooth="yes"/>
      <point x="316" y="456"/>
      <point x="344" y="382"/>
      <point x="344" y="243" type="curve" smooth="yes"/>
      <point x="344" y="104"/>
      <point x="316" y="36"/>
    </contour>
    <contour>
      <point x="17" y="-117" type="line"/>
      <point x="379" y="-117" type="line"/>
      <point x="379" y="-74" type="line"/>
      <point x="17" y="-74" type="line"/>
    </contour>
  </outline>
</glyph>
<glyph name="uni0585" format="2">
  <advance width="442"/>
  <unicode hex="0585"/>
  <note>
uni0585
</note>
  <anchor x="221" y="492" name="top"/>
  <outline>
    <contour>
      <point x="220" y="-10" type="curve" smooth="yes"/>
      <point x="336" y="-10"/>
      <point x="397" y="69"/>
      <point x="397" y="247" type="curve" smooth="yes"/>
      <point x="397" y="417"/>
      <point x="339" y="502"/>
      <point x="222" y="502" type="curve" smooth="yes"/>
      <point x="101" y="502"/>
      <point x="44" y="418"/>
      <point x="44" y="247" type="curve" smooth="yes"/>
      <point x="44" y="71"/>
      <point x="109" y="-10"/>
    </contour>
    <contour>
      <point x="222" y="36" type="curve" smooth="yes"/>
      <point x="143" y="36"/>
      <point x="108" y="102"/>
      <point x="108" y="247" type="curve" smooth="yes"/>
      <point x="108" y="393"/>
      <point x="134" y="456"/>
      <point x="221" y="456" type="curve" smooth="yes"/>
      <point x="305" y="456"/>
      <point x="334" y="393"/>
      <point x="334" y="247" type="curve" smooth="yes"/>
      <point x="334" y="103"/>
      <point x="305" y="36"/>
    </contour>
  </outline>
</glyph>
<glyph name="uni0586" format="2">
  <advance width="497"/>
  <unicode hex="0586"/>
  <note>
uni0586
</note>
  <outline>
    <contour>
      <point x="237" y="-10" type="curve" smooth="yes"/>
      <point x="381" y="-10"/>
      <point x="461" y="73"/>
      <point x="461" y="198" type="curve" smooth="yes"/>
      <point x="461" y="326"/>
      <point x="405" y="397"/>
      <point x="247" y="452" type="curve" smooth="yes"/>
      <point x="127" y="494"/>
      <point x="101" y="529"/>
      <point x="101" y="607" type="curve" smooth="yes"/>
      <point x="101" y="675"/>
      <point x="137" y="717"/>
      <point x="215" y="717" type="curve"/>
      <point x="215" y="760" type="line"/>
      <point x="102" y="760"/>
      <point x="41" y="693"/>
      <point x="41" y="607" type="curve" smooth="yes"/>
      <point x="41" y="507"/>
      <point x="84" y="454"/>
      <point x="233" y="402" type="curve"/>
      <point x="357" y="357"/>
      <point x="398" y="304"/>
      <point x="398" y="197" type="curve" smooth="yes"/>
      <point x="398" y="86"/>
      <point x="343" y="35"/>
      <point x="236" y="35" type="curve" smooth="yes"/>
      <point x="115" y="35"/>
      <point x="72" y="90"/>
      <point x="72" y="197" type="curve"/>
      <point x="45" y="197"/>
      <point x="23" y="181"/>
      <point x="23" y="157" type="curve" smooth="yes"/>
      <point x="23" y="70"/>
      <point x="85" y="-10"/>
    </contour>
    <contour>
      <point x="215" y="-234" type="line"/>
      <point x="319" y="-234" type="line"/>
      <point x="319" y="-199" type="line"/>
      <point x="276" y="-199"/>
      <point x="270" y="-193"/>
      <point x="270" y="-128" type="curve" smooth="yes"/>
      <point x="270" y="760" type="line"/>
      <point x="215" y="760" type="line"/>
    </contour>
  </outline>
</glyph>
<glyph name="uni0587" format="2">
  <advance width="494"/>
  <unicode hex="0587"/>
  <note>
uni0587
</note>
  <outline>
    <contour>
      <point x="208" y="-10" type="curve" smooth="yes"/>
      <point x="268" y="-10"/>
      <point x="305" y="24"/>
      <point x="329" y="75" type="curve"/>
      <point x="333" y="75" type="line"/>
      <point x="341" y="0" type="line"/>
      <point x="394" y="0" type="line"/>
      <point x="394" y="492" type="line"/>
      <point x="280" y="492" type="line"/>
      <point x="280" y="457" type="line"/>
      <point x="319" y="457"/>
      <point x="331" y="451"/>
      <point x="331" y="374" type="curve" smooth="yes"/>
      <point x="331" y="210" type="line" smooth="yes"/>
      <point x="331" y="113"/>
      <point x="299" y="40"/>
      <point x="226" y="40" type="curve" smooth="yes"/>
      <point x="165" y="40"/>
      <point x="139" y="95"/>
      <point x="139" y="201" type="curve" smooth="yes"/>
      <point x="139" y="760" type="line"/>
      <point x="25" y="760" type="line"/>
      <point x="25" y="725" type="line"/>
      <point x="69" y="725"/>
      <point x="76" y="719"/>
      <point x="76" y="652" type="curve" smooth="yes"/>
      <point x="76" y="185" type="line" smooth="yes"/>
      <point x="76" y="47"/>
      <point x="122" y="-10"/>
    </contour>
    <contour>
      <point x="375" y="0" type="line"/>
      <point x="489" y="0" type="line"/>
      <point x="489" y="43" type="line"/>
      <point x="375" y="43" type="line"/>
    </contour>
  </outline>
</glyph>
<glyph name="uni0588" format="2">
  <advance width="226"/>
  <unicode hex="0588"/>
  <note>
uni0575
</note>
  <outline>
    <contour>
      <point x="81" y="129" type="line" smooth="yes"/>
      <point x="81" y="14"/>
      <point x="114" y="-28"/>
      <point x="114" y="-120" type="curve" smooth="yes"/>
      <point x="114" y="-172"/>
      <point x="89" y="-193"/>
      <point x="43" y="-193" type="curve" smooth="yes"/>
      <point x="37" y="-193" type="line"/>
      <point x="37" y="-234" type="line"/>
      <point x="48" y="-234" type="line" smooth="yes"/>
      <point x="136" y="-234"/>
      <point x="176" y="-195"/>
      <point x="176" y="-117" type="curve" smooth="yes"/>
      <point x="176" y="-19"/>
      <point x="144" y="21"/>
      <point x="144" y="128" type="curve" smooth="yes"/>
      <point x="144" y="492" type="line"/>
      <point x="29" y="492" type="line"/>
      <point x="29" y="457" type="line"/>
      <point x="38" y="457" type="line" smooth="yes"/>
      <point x="75" y="457"/>
      <point x="81" y="446"/>
      <point x="81" y="384" type="curve" smooth="yes"/>
    </contour>
    <contour>
      <point x="6" y="130" type="line"/>
      <point x="6" y="87" type="line"/>
      <point x="219" y="87" type="line"/>
      <point x="219" y="130" type="line"/>
    </contour>
  </outline>
</glyph>
<glyph name="uni0589" format="2">
  <advance width="206"/>
  <unicode hex="0589"/>
  <note>
uni0589
</note>
  <outline>
    <contour>
      <point x="104" y="399" type="curve" smooth="yes"/>
      <point x="125" y="399"/>
      <point x="145" y="411"/>
      <point x="145" y="449" type="curve" smooth="yes"/>
      <point x="145" y="487"/>
      <point x="125" y="499"/>
      <point x="104" y="499" type="curve" smooth="yes"/>
      <point x="80" y="499"/>
      <point x="61" y="487"/>
      <point x="61" y="449" type="curve" smooth="yes"/>
      <point x="61" y="411"/>
      <point x="80" y="399"/>
    </contour>
    <contour>
      <point x="104" y="-6" type="curve" smooth="yes"/>
      <point x="125" y="-6"/>
      <point x="145" y="6"/>
      <point x="145" y="44" type="curve" smooth="yes"/>
      <point x="145" y="83"/>
      <point x="125" y="94"/>
      <point x="104" y="94" type="curve" smooth="yes"/>
      <point x="80" y="94"/>
      <point x="61" y="83"/>
      <point x="61" y="44" type="curve" smooth="yes"/>
      <point x="61" y="6"/>
      <point x="80" y="-6"/>
    </contour>
  </outline>
</glyph>
<glyph name="uni058A" format="2">
  <advance width="353"/>
  <unicode hex="058A"/>
  <note>
uni058A
</note>
  <outline>
    <contour>
      <point x="149" y="215" type="curve" smooth="yes"/>
      <point x="206" y="215"/>
      <point x="260" y="232"/>
      <point x="311" y="256" type="curve"/>
      <point x="300" y="291" type="line"/>
      <point x="254" y="272"/>
      <point x="207" y="260"/>
      <point x="166" y="260" type="curve" smooth="yes"/>
      <point x="117" y="260"/>
      <point x="98" y="281"/>
      <point x="98" y="331" type="curve"/>
      <point x="47" y="331" type="line"/>
      <point x="47" y="249"/>
      <point x="78" y="215"/>
    </contour>
  </outline>
</glyph>
<glyph name="uni058D" format="2">
  <advance width="818"/>
  <unicode hex="058D"/>
  <outline>
    <contour>
      <point x="409" y="-10" type="curve" smooth="yes"/>
      <point x="460" y="-10"/>
      <point x="507" y="10"/>
      <point x="542" y="42" type="curve"/>
      <point x="646" y="49"/>
      <point x="724" y="128"/>
      <point x="727" y="227" type="curve"/>
      <point x="760" y="263"/>
      <point x="779" y="308"/>
      <point x="779" y="357" type="curve" smooth="yes"/>
      <point x="779" y="407"/>
      <point x="759" y="453"/>
      <point x="726" y="488" type="curve"/>
      <point x="722" y="590"/>
      <point x="642" y="666"/>
      <point x="542" y="671" type="curve"/>
      <point x="507" y="704"/>
      <point x="460" y="724"/>
      <point x="409" y="724" type="curve" smooth="yes"/>
      <point x="358" y="724"/>
      <point x="311" y="704"/>
      <point x="276" y="672" type="curve"/>
      <point x="170" y="665"/>
      <point x="94" y="585"/>
      <point x="91" y="487" type="curve"/>
      <point x="58" y="451"/>
      <point x="39" y="405"/>
      <point x="39" y="357" type="curve" smooth="yes"/>
      <point x="39" y="307"/>
      <point x="59" y="261"/>
      <point x="91" y="226" type="curve"/>
      <point x="95" y="126"/>
      <point x="175" y="48"/>
      <point x="275" y="43" type="curve"/>
      <point x="311" y="10"/>
      <point x="359" y="-10"/>
    </contour>
    <contour>
      <point x="580" y="91" type="curve"/>
      <point x="596" y="118"/>
      <point x="605" y="150"/>
      <point x="605" y="184" type="curve" smooth="yes"/>
      <point x="605" y="273"/>
      <point x="543" y="348"/>
      <point x="460" y="370" type="curve"/>
      <point x="481" y="382"/>
      <point x="505" y="388"/>
      <point x="529" y="388" type="curve" smooth="yes"/>
      <point x="614" y="388"/>
      <point x="681" y="317"/>
      <point x="681" y="233" type="curve" smooth="yes"/>
      <point x="681" y="166"/>
      <point x="637" y="109"/>
    </contour>
    <contour>
      <point x="408" y="30" type="curve" smooth="yes"/>
      <point x="383" y="30"/>
      <point x="359" y="37"/>
      <point x="338" y="49" type="curve"/>
      <point x="424" y="70"/>
      <point x="482" y="148"/>
      <point x="482" y="234" type="curve" smooth="yes"/>
      <point x="482" y="267"/>
      <point x="474" y="299"/>
      <point x="456" y="328" type="curve"/>
      <point x="515" y="308"/>
      <point x="558" y="250"/>
      <point x="558" y="184" type="curve" smooth="yes"/>
      <point x="558" y="99"/>
      <point x="491" y="30"/>
    </contour>
    <contour>
      <point x="718" y="292" type="curve"/>
      <point x="692" y="374"/>
      <point x="617" y="428"/>
      <point x="533" y="428" type="curve" smooth="yes"/>
      <point x="500" y="428"/>
      <point x="469" y="420"/>
      <point x="440" y="404" type="curve"/>
      <point x="459" y="465"/>
      <point x="515" y="509"/>
      <point x="582" y="509" type="curve" smooth="yes"/>
      <point x="666" y="509"/>
      <point x="733" y="441"/>
      <point x="733" y="357" type="curve" smooth="yes"/>
      <point x="733" y="334"/>
      <point x="728" y="312"/>
    </contour>
    <contour>
      <point x="285" y="82" type="curve" smooth="yes"/>
      <point x="219" y="82"/>
      <point x="163" y="126"/>
      <point x="145" y="187" type="curve"/>
      <point x="172" y="172"/>
      <point x="203" y="163"/>
      <point x="236" y="163" type="curve" smooth="yes"/>
      <point x="323" y="163"/>
      <point x="397" y="221"/>
      <point x="422" y="299" type="curve"/>
      <point x="432" y="280"/>
      <point x="436" y="258"/>
      <point x="436" y="237" type="curve" smooth="yes"/>
      <point x="436" y="149"/>
      <point x="368" y="82"/>
    </contour>
    <contour>
      <point x="396" y="415" type="curve"/>
      <point x="386" y="434"/>
      <point x="381" y="456"/>
      <point x="381" y="477" type="curve" smooth="yes"/>
      <point x="381" y="565"/>
      <point x="450" y="632"/>
      <point x="533" y="632" type="curve" smooth="yes"/>
      <point x="597" y="632"/>
      <point x="655" y="590"/>
      <point x="673" y="527" type="curve"/>
      <point x="646" y="542"/>
      <point x="614" y="551"/>
      <point x="581" y="551" type="curve" smooth="yes"/>
      <point x="494" y="551"/>
      <point x="420" y="493"/>
    </contour>
    <contour>
      <point x="236" y="205" type="curve" smooth="yes"/>
      <point x="152" y="205"/>
      <point x="85" y="273"/>
      <point x="85" y="357" type="curve" smooth="yes"/>
      <point x="85" y="380"/>
      <point x="91" y="402"/>
      <point x="101" y="421" type="curve"/>
      <point x="126" y="340"/>
      <point x="201" y="286"/>
      <point x="285" y="286" type="curve" smooth="yes"/>
      <point x="317" y="286"/>
      <point x="349" y="294"/>
      <point x="378" y="310" type="curve"/>
      <point x="359" y="249"/>
      <point x="303" y="205"/>
    </contour>
    <contour>
      <point x="360" y="386" type="curve"/>
      <point x="302" y="406"/>
      <point x="259" y="464"/>
      <point x="259" y="530" type="curve" smooth="yes"/>
      <point x="259" y="615"/>
      <point x="326" y="684"/>
      <point x="408" y="684" type="curve" smooth="yes"/>
      <point x="433" y="684"/>
      <point x="458" y="678"/>
      <point x="479" y="665" type="curve"/>
      <point x="393" y="644"/>
      <point x="335" y="566"/>
      <point x="335" y="480" type="curve" smooth="yes"/>
      <point x="335" y="447"/>
      <point x="343" y="415"/>
    </contour>
    <contour>
      <point x="288" y="326" type="curve" smooth="yes"/>
      <point x="203" y="326"/>
      <point x="136" y="397"/>
      <point x="136" y="481" type="curve" smooth="yes"/>
      <point x="136" y="547"/>
      <point x="178" y="603"/>
      <point x="237" y="624" type="curve"/>
      <point x="221" y="596"/>
      <point x="212" y="564"/>
      <point x="212" y="530" type="curve" smooth="yes"/>
      <point x="212" y="441"/>
      <point x="274" y="366"/>
      <point x="357" y="344" type="curve"/>
      <point x="336" y="332"/>
      <point x="312" y="326"/>
    </contour>
  </outline>
</glyph>
<glyph name="uni058F" format="2">
  <advance width="532"/>
  <unicode hex="058F"/>
  <note>
uni058F
</note>
  <outline>
    <contour>
      <point x="48" y="367" type="line"/>
      <point x="113" y="367" type="line"/>
      <point x="113" y="451" type="line" smooth="yes"/>
      <point x="113" y="557"/>
      <point x="152" y="631"/>
      <point x="235" y="631" type="curve" smooth="yes"/>
      <point x="310" y="631"/>
      <point x="355" y="580"/>
      <point x="355" y="457" type="curve" smooth="yes"/>
      <point x="355" y="0" type="line"/>
      <point x="461" y="0" type="line"/>
      <point x="461" y="35" type="line"/>
      <point x="424" y="35"/>
      <point x="419" y="45"/>
      <point x="419" y="116" type="curve" smooth="yes"/>
      <point x="419" y="448" type="line" smooth="yes"/>
      <point x="419" y="607"/>
      <point x="349" y="674"/>
      <point x="234" y="674" type="curve" smooth="yes"/>
      <point x="113" y="674"/>
      <point x="48" y="580"/>
      <point x="48" y="445" type="curve" smooth="yes"/>
    </contour>
    <contour>
      <point x="257" y="295" type="line"/>
      <point x="518" y="295" type="line"/>
      <point x="518" y="338" type="line"/>
      <point x="257" y="338" type="line"/>
    </contour>
    <contour>
      <point x="257" y="200" type="line"/>
      <point x="518" y="200" type="line"/>
      <point x="518" y="243" type="line"/>
      <point x="257" y="243" type="line"/>
    </contour>
  </outline>
</glyph>
<glyph name="hyphentwo" format="2">
  <advance width="253"/>
  <unicode hex="2010"/>
  <outline>
    <contour>
      <point x="20" y="236" type="line"/>
      <point x="226" y="236" type="line"/>
      <point x="226" y="309" type="line"/>
      <point x="20" y="309" type="line"/>
    </contour>
  </outline>
</glyph>
<glyph name="uniFB13" format="2">
  <advance width="896"/>
  <unicode hex="FB13"/>
  <note>
uniFB13
</note>
  <outline>
    <contour>
      <point x="394" y="111" type="curve" smooth="yes"/>
      <point x="394" y="449" type="line"/>
      <point x="394" y="494"/>
      <point x="384" y="532"/>
      <point x="358" y="567" type="curve" smooth="yes"/>
      <point x="329" y="605"/>
      <point x="319" y="641"/>
      <point x="319" y="670" type="curve" smooth="yes"/>
      <point x="319" y="708"/>
      <point x="332" y="721"/>
      <point x="369" y="721" type="curve" smooth="yes"/>
      <point x="408" y="721"/>
      <point x="461" y="703"/>
      <point x="524" y="662" type="curve"/>
      <point x="562" y="701" type="line"/>
      <point x="490" y="747"/>
      <point x="423" y="764"/>
      <point x="366" y="764" type="curve" smooth="yes"/>
      <point x="308" y="764"/>
      <point x="259" y="735"/>
      <point x="259" y="660" type="curve" smooth="yes"/>
      <point x="259" y="626"/>
      <point x="272" y="585"/>
      <point x="298" y="550" type="curve" smooth="yes"/>
      <point x="321" y="519"/>
      <point x="331" y="481"/>
      <point x="331" y="447" type="curve"/>
      <point x="331" y="205" type="line" smooth="yes"/>
      <point x="331" y="108"/>
      <point x="299" y="40"/>
      <point x="226" y="40" type="curve" smooth="yes"/>
      <point x="165" y="40"/>
      <point x="139" y="95"/>
      <point x="139" y="193" type="curve" smooth="yes"/>
      <point x="139" y="492" type="line"/>
      <point x="25" y="492" type="line"/>
      <point x="25" y="457" type="line"/>
      <point x="69" y="457"/>
      <point x="76" y="451"/>
      <point x="76" y="384" type="curve" smooth="yes"/>
      <point x="76" y="185" type="line" smooth="yes"/>
      <point x="76" y="47"/>
      <point x="122" y="-10"/>
      <point x="208" y="-10" type="curve" smooth="yes"/>
      <point x="268" y="-10"/>
      <point x="305" y="24"/>
      <point x="329" y="75" type="curve"/>
      <point x="333" y="75" type="line"/>
      <point x="341" y="0" type="line"/>
      <point x="444" y="0" type="line"/>
      <point x="444" y="35" type="line"/>
      <point x="400" y="35"/>
      <point x="394" y="40"/>
    </contour>
    <contour>
      <point x="815" y="111" type="curve" smooth="yes"/>
      <point x="815" y="492" type="line"/>
      <point x="703" y="492" type="line"/>
      <point x="703" y="457" type="line"/>
      <point x="742" y="457"/>
      <point x="752" y="451"/>
      <point x="752" y="374" type="curve" smooth="yes"/>
      <point x="752" y="210" type="line" smooth="yes"/>
      <point x="752" y="112"/>
      <point x="714" y="40"/>
      <point x="639" y="40" type="curve" smooth="yes"/>
      <point x="572" y="40"/>
      <point x="544" y="93"/>
      <point x="544" y="193" type="curve" smooth="yes"/>
      <point x="544" y="306"/>
      <point x="573" y="440"/>
      <point x="625" y="555" type="curve"/>
      <point x="583" y="567" type="line"/>
      <point x="520" y="448"/>
      <point x="481" y="301"/>
      <point x="481" y="185" type="curve" smooth="yes"/>
      <point x="481" y="47"/>
      <point x="529" y="-10"/>
      <point x="621" y="-10" type="curve" smooth="yes"/>
      <point x="683" y="-10"/>
      <point x="726" y="24"/>
      <point x="750" y="75" type="curve"/>
      <point x="754" y="75" type="line"/>
      <point x="762" y="0" type="line"/>
      <point x="866" y="0" type="line"/>
      <point x="866" y="35" type="line"/>
      <point x="821" y="35"/>
      <point x="815" y="40"/>
    </contour>
    <contour>
      <point x="562" y="701" type="curve"/>
      <point x="504" y="705" type="line"/>
      <point x="496" y="692"/>
      <point x="492" y="677"/>
      <point x="492" y="661" type="curve" smooth="yes"/>
      <point x="492" y="597"/>
      <point x="527" y="559"/>
      <point x="580" y="545" type="curve"/>
      <point x="625" y="555" type="line"/>
      <point x="625" y="570" type="line"/>
      <point x="571" y="581"/>
      <point x="549" y="606"/>
      <point x="549" y="656" type="curve" smooth="yes"/>
      <point x="549" y="673"/>
      <point x="552" y="687"/>
    </contour>
  </outline>
</glyph>
<glyph name="uniFB14" format="2">
  <advance width="891"/>
  <unicode hex="FB14"/>
  <note>
uniFB14
</note>
  <outline>
    <contour>
      <point x="259" y="660" type="curve" smooth="yes"/>
      <point x="259" y="626"/>
      <point x="272" y="586"/>
      <point x="298" y="550" type="curve" smooth="yes"/>
      <point x="321" y="519"/>
      <point x="331" y="481"/>
      <point x="331" y="447" type="curve" smooth="yes"/>
      <point x="331" y="205" type="line" smooth="yes"/>
      <point x="331" y="108"/>
      <point x="299" y="40"/>
      <point x="226" y="40" type="curve" smooth="yes"/>
      <point x="165" y="40"/>
      <point x="139" y="95"/>
      <point x="139" y="201" type="curve" smooth="yes"/>
      <point x="139" y="492" type="line"/>
      <point x="25" y="492" type="line"/>
      <point x="25" y="457" type="line"/>
      <point x="69" y="457"/>
      <point x="76" y="451"/>
      <point x="76" y="384" type="curve" smooth="yes"/>
      <point x="76" y="185" type="line" smooth="yes"/>
      <point x="76" y="47"/>
      <point x="122" y="-10"/>
      <point x="208" y="-10" type="curve" smooth="yes"/>
      <point x="268" y="-10"/>
      <point x="305" y="24"/>
      <point x="329" y="75" type="curve"/>
      <point x="333" y="75" type="line"/>
      <point x="341" y="0" type="line"/>
      <point x="444" y="0" type="line"/>
      <point x="444" y="35" type="line"/>
      <point x="400" y="35"/>
      <point x="394" y="40"/>
      <point x="394" y="111" type="curve" smooth="yes"/>
      <point x="394" y="449" type="line" smooth="yes"/>
      <point x="394" y="494"/>
      <point x="385" y="532"/>
      <point x="358" y="567" type="curve" smooth="yes"/>
      <point x="328" y="606"/>
      <point x="319" y="641"/>
      <point x="319" y="670" type="curve" smooth="yes"/>
      <point x="319" y="708"/>
      <point x="332" y="729"/>
      <point x="369" y="729" type="curve" smooth="yes"/>
      <point x="409" y="729"/>
      <point x="455" y="711"/>
      <point x="517" y="670" type="curve"/>
      <point x="555" y="701" type="line"/>
      <point x="479" y="747"/>
      <point x="419" y="764"/>
      <point x="366" y="764" type="curve" smooth="yes"/>
      <point x="308" y="764"/>
      <point x="259" y="735"/>
    </contour>
    <contour>
      <point x="810" y="320" type="line"/>
      <point x="747" y="320" type="line"/>
      <point x="747" y="210" type="line" smooth="yes"/>
      <point x="747" y="113"/>
      <point x="715" y="40"/>
      <point x="642" y="40" type="curve" smooth="yes"/>
      <point x="582" y="40"/>
      <point x="555" y="95"/>
      <point x="555" y="193" type="curve" smooth="yes"/>
      <point x="555" y="701" type="line"/>
      <point x="492" y="691" type="line"/>
      <point x="492" y="185" type="line" smooth="yes"/>
      <point x="492" y="47"/>
      <point x="538" y="-10"/>
      <point x="624" y="-10" type="curve" smooth="yes"/>
      <point x="684" y="-10"/>
      <point x="721" y="24"/>
      <point x="745" y="75" type="curve"/>
      <point x="749" y="75" type="line"/>
      <point x="757" y="0" type="line"/>
      <point x="861" y="0" type="line"/>
      <point x="861" y="35" type="line"/>
      <point x="816" y="35"/>
      <point x="810" y="40"/>
      <point x="810" y="111" type="curve" smooth="yes"/>
    </contour>
    <contour>
      <point x="530" y="449" type="line"/>
      <point x="846" y="449" type="line"/>
      <point x="846" y="492" type="line"/>
      <point x="530" y="492" type="line"/>
    </contour>
  </outline>
</glyph>
<glyph name="uniFB15" format="2">
  <advance width="884"/>
  <unicode hex="FB15"/>
  <note>
uniFB15
</note>
  <outline>
    <contour>
      <point x="259" y="660" type="curve" smooth="yes"/>
      <point x="259" y="626"/>
      <point x="272" y="585"/>
      <point x="298" y="550" type="curve" smooth="yes"/>
      <point x="321" y="519"/>
      <point x="331" y="481"/>
      <point x="331" y="447" type="curve" smooth="yes"/>
      <point x="331" y="210" type="line" smooth="yes"/>
      <point x="331" y="113"/>
      <point x="299" y="40"/>
      <point x="226" y="40" type="curve" smooth="yes"/>
      <point x="165" y="40"/>
      <point x="139" y="87"/>
      <point x="139" y="193" type="curve" smooth="yes"/>
      <point x="139" y="492" type="line"/>
      <point x="25" y="492" type="line"/>
      <point x="25" y="457" type="line"/>
      <point x="69" y="457"/>
      <point x="76" y="451"/>
      <point x="76" y="384" type="curve" smooth="yes"/>
      <point x="76" y="185" type="line" smooth="yes"/>
      <point x="76" y="47"/>
      <point x="122" y="-10"/>
      <point x="208" y="-10" type="curve" smooth="yes"/>
      <point x="268" y="-10"/>
      <point x="305" y="24"/>
      <point x="329" y="75" type="curve"/>
      <point x="333" y="75" type="line"/>
      <point x="341" y="0" type="line"/>
      <point x="444" y="0" type="line"/>
      <point x="444" y="35" type="line"/>
      <point x="400" y="35"/>
      <point x="394" y="40"/>
      <point x="394" y="111" type="curve" smooth="yes"/>
      <point x="394" y="449" type="line" smooth="yes"/>
      <point x="394" y="494"/>
      <point x="385" y="532"/>
      <point x="358" y="567" type="curve" smooth="yes"/>
      <point x="328" y="605"/>
      <point x="319" y="641"/>
      <point x="319" y="670" type="curve" smooth="yes"/>
      <point x="319" y="708"/>
      <point x="332" y="721"/>
      <point x="369" y="721" type="curve" smooth="yes"/>
      <point x="407" y="721"/>
      <point x="454" y="703"/>
      <point x="517" y="662" type="curve"/>
      <point x="555" y="701" type="line"/>
      <point x="484" y="747"/>
      <point x="423" y="764"/>
      <point x="369" y="764" type="curve" smooth="yes"/>
      <point x="305" y="764"/>
      <point x="259" y="735"/>
    </contour>
    <contour>
      <point x="859" y="35" type="line"/>
      <point x="816" y="35"/>
      <point x="808" y="42"/>
      <point x="808" y="110" type="curve" smooth="yes"/>
      <point x="808" y="318" type="line" smooth="yes"/>
      <point x="808" y="444"/>
      <point x="768" y="501"/>
      <point x="678" y="501" type="curve" smooth="yes"/>
      <point x="612" y="501"/>
      <point x="580" y="466"/>
      <point x="556" y="418" type="curve"/>
      <point x="552" y="418" type="line"/>
      <point x="553" y="444"/>
      <point x="555" y="470"/>
      <point x="555" y="496" type="curve" smooth="yes"/>
      <point x="555" y="701" type="line"/>
      <point x="492" y="689" type="line"/>
      <point x="492" y="-234" type="line"/>
      <point x="607" y="-234" type="line"/>
      <point x="607" y="-199" type="line"/>
      <point x="563" y="-199"/>
      <point x="555" y="-194"/>
      <point x="555" y="-126" type="curve" smooth="yes"/>
      <point x="555" y="282" type="line" smooth="yes"/>
      <point x="555" y="402"/>
      <point x="599" y="451"/>
      <point x="660" y="451" type="curve" smooth="yes"/>
      <point x="723" y="451"/>
      <point x="745" y="393"/>
      <point x="745" y="310" type="curve" smooth="yes"/>
      <point x="745" y="0" type="line"/>
      <point x="859" y="0" type="line"/>
    </contour>
  </outline>
</glyph>
<glyph name="uniFB16" format="2">
  <advance width="896"/>
  <unicode hex="FB16"/>
  <note>
uniFB16
</note>
  <outline>
    <contour>
      <point x="331" y="-234" type="line"/>
      <point x="394" y="-234" type="line"/>
      <point x="394" y="670" type="line" smooth="yes"/>
      <point x="394" y="708"/>
      <point x="401" y="721"/>
      <point x="426" y="721" type="curve" smooth="yes"/>
      <point x="452" y="721"/>
      <point x="478" y="707"/>
      <point x="524" y="662" type="curve"/>
      <point x="562" y="701" type="line"/>
      <point x="499" y="750"/>
      <point x="459" y="764"/>
      <point x="416" y="764" type="curve" smooth="yes"/>
      <point x="365" y="764"/>
      <point x="331" y="735"/>
      <point x="331" y="660" type="curve" smooth="yes"/>
      <point x="331" y="231" type="line" smooth="yes"/>
      <point x="331" y="133"/>
      <point x="299" y="40"/>
      <point x="226" y="40" type="curve" smooth="yes"/>
      <point x="165" y="40"/>
      <point x="139" y="95"/>
      <point x="139" y="193" type="curve" smooth="yes"/>
      <point x="139" y="492" type="line"/>
      <point x="25" y="492" type="line"/>
      <point x="25" y="457" type="line"/>
      <point x="69" y="457"/>
      <point x="76" y="451"/>
      <point x="76" y="384" type="curve" smooth="yes"/>
      <point x="76" y="185" type="line" smooth="yes"/>
      <point x="76" y="47"/>
      <point x="122" y="-10"/>
      <point x="208" y="-10" type="curve" smooth="yes"/>
      <point x="268" y="-10"/>
      <point x="305" y="24"/>
      <point x="329" y="75" type="curve"/>
      <point x="333" y="75" type="line"/>
      <point x="332" y="53"/>
      <point x="331" y="25"/>
      <point x="331" y="3" type="curve" smooth="yes"/>
    </contour>
    <contour>
      <point x="357" y="-234" type="line"/>
      <point x="500" y="-234" type="line"/>
      <point x="500" y="-189" type="line"/>
      <point x="357" y="-189" type="line"/>
    </contour>
    <contour>
      <point x="621" y="-10" type="curve" smooth="yes"/>
      <point x="683" y="-10"/>
      <point x="726" y="24"/>
      <point x="750" y="75" type="curve"/>
      <point x="754" y="75" type="line"/>
      <point x="762" y="0" type="line"/>
      <point x="866" y="0" type="line"/>
      <point x="866" y="35" type="line"/>
      <point x="821" y="35"/>
      <point x="815" y="40"/>
      <point x="815" y="111" type="curve" smooth="yes"/>
      <point x="815" y="492" type="line"/>
      <point x="703" y="492" type="line"/>
      <point x="703" y="463" type="line"/>
      <point x="742" y="463"/>
      <point x="752" y="457"/>
      <point x="752" y="380" type="curve" smooth="yes"/>
      <point x="752" y="210" type="line" smooth="yes"/>
      <point x="752" y="112"/>
      <point x="714" y="40"/>
      <point x="639" y="40" type="curve" smooth="yes"/>
      <point x="572" y="40"/>
      <point x="544" y="85"/>
      <point x="544" y="193" type="curve" smooth="yes"/>
      <point x="544" y="306"/>
      <point x="573" y="440"/>
      <point x="625" y="555" type="curve"/>
      <point x="583" y="567" type="line"/>
      <point x="520" y="448"/>
      <point x="481" y="301"/>
      <point x="481" y="185" type="curve" smooth="yes"/>
      <point x="481" y="47"/>
      <point x="529" y="-10"/>
    </contour>
    <contour>
      <point x="580" y="545" type="curve"/>
      <point x="625" y="555" type="line"/>
      <point x="625" y="570" type="line"/>
      <point x="571" y="581"/>
      <point x="549" y="606"/>
      <point x="549" y="656" type="curve" smooth="yes"/>
      <point x="549" y="673"/>
      <point x="552" y="687"/>
      <point x="562" y="701" type="curve"/>
      <point x="504" y="705" type="line"/>
      <point x="496" y="692"/>
      <point x="492" y="677"/>
      <point x="492" y="661" type="curve" smooth="yes"/>
      <point x="492" y="597"/>
      <point x="527" y="559"/>
    </contour>
  </outline>
</glyph>
<glyph name="uniFB17" format="2">
  <advance width="1144"/>
  <unicode hex="FB17"/>
  <note>
uniFB17
</note>
  <outline>
    <contour>
      <point x="259" y="660" type="curve" smooth="yes"/>
      <point x="259" y="629"/>
      <point x="272" y="585"/>
      <point x="298" y="550" type="curve" smooth="yes"/>
      <point x="321" y="519"/>
      <point x="331" y="481"/>
      <point x="331" y="447" type="curve" smooth="yes"/>
      <point x="331" y="210" type="line" smooth="yes"/>
      <point x="331" y="113"/>
      <point x="299" y="40"/>
      <point x="226" y="40" type="curve" smooth="yes"/>
      <point x="165" y="40"/>
      <point x="139" y="95"/>
      <point x="139" y="193" type="curve" smooth="yes"/>
      <point x="139" y="492" type="line"/>
      <point x="25" y="492" type="line"/>
      <point x="25" y="457" type="line"/>
      <point x="69" y="457"/>
      <point x="76" y="451"/>
      <point x="76" y="384" type="curve" smooth="yes"/>
      <point x="76" y="185" type="line" smooth="yes"/>
      <point x="76" y="47"/>
      <point x="122" y="-10"/>
      <point x="208" y="-10" type="curve" smooth="yes"/>
      <point x="268" y="-10"/>
      <point x="305" y="24"/>
      <point x="329" y="75" type="curve"/>
      <point x="333" y="75" type="line"/>
      <point x="341" y="0" type="line"/>
      <point x="444" y="0" type="line"/>
      <point x="444" y="35" type="line"/>
      <point x="400" y="35"/>
      <point x="394" y="40"/>
      <point x="394" y="111" type="curve" smooth="yes"/>
      <point x="394" y="449" type="line" smooth="yes"/>
      <point x="394" y="494"/>
      <point x="384" y="532"/>
      <point x="358" y="567" type="curve" smooth="yes"/>
      <point x="328" y="607"/>
      <point x="319" y="636"/>
      <point x="319" y="670" type="curve" smooth="yes"/>
      <point x="319" y="708"/>
      <point x="332" y="721"/>
      <point x="369" y="721" type="curve" smooth="yes"/>
      <point x="406" y="721"/>
      <point x="454" y="703"/>
      <point x="517" y="662" type="curve"/>
      <point x="555" y="701" type="line"/>
      <point x="484" y="747"/>
      <point x="422" y="764"/>
      <point x="366" y="764" type="curve" smooth="yes"/>
      <point x="308" y="764"/>
      <point x="259" y="735"/>
    </contour>
    <contour>
      <point x="1063" y="111" type="curve" smooth="yes"/>
      <point x="1063" y="492" type="line"/>
      <point x="949" y="492" type="line"/>
      <point x="949" y="457" type="line"/>
      <point x="988" y="457"/>
      <point x="1000" y="451"/>
      <point x="1000" y="374" type="curve" smooth="yes"/>
      <point x="1000" y="210" type="line" smooth="yes"/>
      <point x="1000" y="113"/>
      <point x="968" y="40"/>
      <point x="896" y="40" type="curve" smooth="yes"/>
      <point x="835" y="40"/>
      <point x="808" y="95"/>
      <point x="808" y="193" type="curve" smooth="yes"/>
      <point x="808" y="318" type="line" smooth="yes"/>
      <point x="808" y="444"/>
      <point x="768" y="501"/>
      <point x="678" y="501" type="curve" smooth="yes"/>
      <point x="612" y="501"/>
      <point x="580" y="466"/>
      <point x="556" y="418" type="curve"/>
      <point x="552" y="418" type="line"/>
      <point x="553" y="444"/>
      <point x="555" y="470"/>
      <point x="555" y="496" type="curve" smooth="yes"/>
      <point x="555" y="701" type="line"/>
      <point x="492" y="691" type="line"/>
      <point x="492" y="-234" type="line"/>
      <point x="607" y="-234" type="line"/>
      <point x="607" y="-199" type="line"/>
      <point x="563" y="-199"/>
      <point x="555" y="-194"/>
      <point x="555" y="-126" type="curve" smooth="yes"/>
      <point x="555" y="282" type="line" smooth="yes"/>
      <point x="555" y="402"/>
      <point x="599" y="451"/>
      <point x="660" y="451" type="curve" smooth="yes"/>
      <point x="723" y="451"/>
      <point x="745" y="401"/>
      <point x="745" y="310" type="curve" smooth="yes"/>
      <point x="745" y="185" type="line" smooth="yes"/>
      <point x="745" y="47"/>
      <point x="791" y="-10"/>
      <point x="877" y="-10" type="curve" smooth="yes"/>
      <point x="937" y="-10"/>
      <point x="974" y="24"/>
      <point x="998" y="75" type="curve"/>
      <point x="1002" y="75" type="line"/>
      <point x="1010" y="0" type="line"/>
      <point x="1114" y="0" type="line"/>
      <point x="1114" y="35" type="line"/>
      <point x="1069" y="35"/>
      <point x="1063" y="40"/>
    </contour>
  </outline>
</glyph>
